%TF.GenerationSoftware,KiCad,Pcbnew,9.0.7+1*%
%TF.CreationDate,2026-02-20T14:40:58+00:00*%
%TF.ProjectId,ZSWatch-Extension,5a535761-7463-4682-9d45-7874656e7369,+ (Unreleased)*%
%TF.SameCoordinates,Original*%
%TF.FileFunction,Paste,Bot*%
%TF.FilePolarity,Positive*%
%FSLAX46Y46*%
G04 Gerber Fmt 4.6, Leading zero omitted, Abs format (unit mm)*
G04 Created by KiCad (PCBNEW 9.0.7+1) date 2026-02-20 14:40:58*
%MOMM*%
%LPD*%
G01*
G04 APERTURE LIST*
G04 Aperture macros list*
%AMRoundRect*
0 Rectangle with rounded corners*
0 $1 Rounding radius*
0 $2 $3 $4 $5 $6 $7 $8 $9 X,Y pos of 4 corners*
0 Add a 4 corners polygon primitive as box body*
4,1,4,$2,$3,$4,$5,$6,$7,$8,$9,$2,$3,0*
0 Add four circle primitives for the rounded corners*
1,1,$1+$1,$2,$3*
1,1,$1+$1,$4,$5*
1,1,$1+$1,$6,$7*
1,1,$1+$1,$8,$9*
0 Add four rect primitives between the rounded corners*
20,1,$1+$1,$2,$3,$4,$5,0*
20,1,$1+$1,$4,$5,$6,$7,0*
20,1,$1+$1,$6,$7,$8,$9,0*
20,1,$1+$1,$8,$9,$2,$3,0*%
G04 Aperture macros list end*
%ADD10RoundRect,0.079500X-0.079500X-0.100500X0.079500X-0.100500X0.079500X0.100500X-0.079500X0.100500X0*%
%ADD11RoundRect,0.079500X0.079500X0.100500X-0.079500X0.100500X-0.079500X-0.100500X0.079500X-0.100500X0*%
%ADD12R,0.550000X0.550000*%
%ADD13R,0.300000X0.300000*%
%ADD14C,0.250000*%
G04 APERTURE END LIST*
D10*
%TO.C,C508*%
X208355000Y-145800000D03*
X209045000Y-145800000D03*
%TD*%
D11*
%TO.C,C611*%
X210325000Y-154700000D03*
X209635000Y-154700000D03*
%TD*%
D12*
%TO.C,D501*%
X203390000Y-148000000D03*
X201010000Y-148000000D03*
X203390000Y-149310000D03*
X201010000Y-149310000D03*
X203390000Y-150690000D03*
X201010000Y-150690000D03*
X203390000Y-152000000D03*
X201010000Y-152000000D03*
%TD*%
D11*
%TO.C,R601*%
X210325000Y-155500000D03*
X209635000Y-155500000D03*
%TD*%
%TO.C,C509*%
X205100000Y-146000000D03*
X204410000Y-146000000D03*
%TD*%
D13*
%TO.C,LED501*%
X205650000Y-150575000D03*
X205650000Y-149425000D03*
X205000000Y-150575000D03*
X205000000Y-149425000D03*
X204350000Y-150575000D03*
X204350000Y-149425000D03*
%TD*%
D14*
%TO.C,IC503*%
X207600000Y-145500000D03*
X207200000Y-145500000D03*
X206800000Y-145500000D03*
X206400000Y-145500000D03*
X206000000Y-145500000D03*
X207600000Y-145900000D03*
X207200000Y-145900000D03*
X206800000Y-145900000D03*
X206400000Y-145900000D03*
X206000000Y-145900000D03*
X207600000Y-146300000D03*
X207200000Y-146300000D03*
X206800000Y-146300000D03*
X206400000Y-146300000D03*
X206000000Y-146300000D03*
X207600000Y-146700000D03*
X207200000Y-146700000D03*
X206800000Y-146700000D03*
X206400000Y-146700000D03*
X206000000Y-146700000D03*
%TD*%
D12*
%TO.C,D502*%
X208990000Y-148000000D03*
X206610000Y-148000000D03*
X208990000Y-149310000D03*
X206610000Y-149310000D03*
X208990000Y-150690000D03*
X206610000Y-150690000D03*
X208990000Y-152000000D03*
X206610000Y-152000000D03*
%TD*%
M02*
