M48
; DRILL file {KiCad 9.0.7+1} date 2026-02-20T14:41:00+0000
; FORMAT={-:-/ absolute / metric / decimal}
; #@! TF.CreationDate,2026-02-20T14:41:00+00:00
; #@! TF.GenerationSoftware,Kicad,Pcbnew,9.0.7+1
; #@! TF.FileFunction,Plated,1,4,PTH
FMAT,2
METRIC
; #@! TA.AperFunction,Plated,PTH,ViaDrill
T1C0.150
%
G90
G05
T1
X197.182Y-150.199
X197.2Y-149.173
X197.2Y-149.65
X197.2Y-150.7
X197.29Y-151.3
X198.616Y-149.584
X198.631Y-151.831
X199.049Y-151.7
X200.2Y-144.667
X200.38Y-147.42
X200.4Y-148.8
X200.9Y-147.0
X201.248Y-146.517
X201.606Y-143.269
X201.65Y-149.05
X201.65Y-150.775
X201.65Y-151.3
X202.175Y-148.525
X202.175Y-149.05
X202.175Y-150.775
X202.175Y-151.3
X202.653Y-147.53
X202.7Y-148.525
X202.7Y-149.05
X202.7Y-150.775
X202.7Y-151.3
X203.1Y-142.656
X203.1Y-157.105
X203.125Y-154.875
X203.125Y-155.875
X203.5Y-142.973
X203.7Y-154.3
X203.7Y-157.745
X203.725Y-147.325
X203.9Y-143.3
X204.0Y-148.375
X204.0Y-148.9
X204.25Y-147.325
X204.525Y-156.345
X204.6Y-143.7
X204.775Y-147.325
X204.775Y-156.005
X204.845Y-154.445
X204.85Y-143.04
X204.875Y-142.275
X205.0Y-151.0
X205.025Y-155.665
X205.1Y-144.9
X205.1Y-150.0
X205.275Y-155.325
X205.275Y-156.005
X205.3Y-157.5
X205.5Y-145.5
X205.525Y-155.665
X205.6Y-143.2
X205.65Y-151.0
X205.675Y-154.825
X205.688Y-148.737
X205.775Y-155.325
X205.775Y-156.005
X206.1Y-144.2
X206.275Y-156.005
X206.4Y-145.5
X206.525Y-155.665
X206.613Y-143.713
X206.775Y-156.005
X206.8Y-146.7
X206.842Y-157.435
X207.025Y-155.665
X207.112Y-144.143
X207.175Y-154.825
X207.2Y-145.9
X207.202Y-146.302
X207.275Y-156.005
X207.5Y-147.3
X207.675Y-154.525
X207.89Y-146.061
X208.572Y-142.8
X208.6Y-146.8
X208.6Y-153.5
X208.9Y-155.2
X209.35Y-146.4
X209.4Y-156.345
X209.5Y-146.88
X209.7Y-143.993
X209.9Y-145.4
X212.0Y-150.9
X212.0Y-151.4
M30
