%TF.GenerationSoftware,KiCad,Pcbnew,9.0.7+1*%
%TF.CreationDate,2026-02-20T14:31:45+00:00*%
%TF.ProjectId,ZSWatch-Extension,5a535761-7463-4682-9d45-7874656e7369,+ (Unreleased)*%
%TF.SameCoordinates,Original*%
%TF.FileFunction,Copper,L2,Inr*%
%TF.FilePolarity,Positive*%
%FSLAX46Y46*%
G04 Gerber Fmt 4.6, Leading zero omitted, Abs format (unit mm)*
G04 Created by KiCad (PCBNEW 9.0.7+1) date 2026-02-20 14:31:45*
%MOMM*%
%LPD*%
G01*
G04 APERTURE LIST*
%TA.AperFunction,ViaPad*%
%ADD10C,0.350000*%
%TD*%
%TA.AperFunction,ViaPad*%
%ADD11C,0.302400*%
%TD*%
%TA.AperFunction,Conductor*%
%ADD12C,0.150000*%
%TD*%
G04 APERTURE END LIST*
D10*
%TO.N,GND*%
X207112500Y-144143000D03*
X200400000Y-148800000D03*
X209700000Y-143993000D03*
D11*
X209350000Y-146400000D03*
D10*
X209500000Y-146880000D03*
X212000000Y-151400000D03*
D11*
X206800000Y-146700000D03*
X204875000Y-142275000D03*
X201247524Y-146516942D03*
X200200000Y-144666584D03*
X200379773Y-147420227D03*
%TO.N,PD_GND*%
X203725000Y-147325000D03*
X204000000Y-148900000D03*
X204000000Y-148375000D03*
X202700000Y-148525000D03*
X201650000Y-150775000D03*
X204775000Y-147325000D03*
X202175000Y-151300000D03*
X202175000Y-150775000D03*
X201650000Y-149050000D03*
X204250000Y-147325000D03*
X202175000Y-148525000D03*
X202700000Y-151300000D03*
X201650000Y-151300000D03*
X202175000Y-149050000D03*
X202700000Y-149050000D03*
X202700000Y-150775000D03*
D10*
%TO.N,GNDA*%
X206842069Y-157435457D03*
D11*
X207275000Y-156005000D03*
D10*
X203700000Y-154300000D03*
X203700000Y-157745000D03*
X208900000Y-155200000D03*
X205300000Y-157500000D03*
X209400000Y-156345000D03*
D11*
X206775000Y-156005000D03*
X205275000Y-156005000D03*
D10*
%TO.N,VSYS*%
X205100000Y-150000000D03*
X197200000Y-150700000D03*
X209900000Y-145400000D03*
X203100000Y-157105000D03*
D11*
%TO.N,Net-(IC503-LED3-DRV)*%
X207890354Y-146060790D03*
D10*
X205687500Y-148737500D03*
D11*
%TO.N,Net-(IC503-LED1-DRV)*%
X207500000Y-147300000D03*
D10*
X205000000Y-151000000D03*
D11*
%TO.N,Net-(IC503-LED2-DRV)*%
X208600000Y-146800000D03*
D10*
X205650000Y-151000000D03*
%TO.N,/Project Architecture/Audio/I2C_SCL*%
X197200000Y-149650000D03*
D11*
X198630659Y-151830659D03*
X205775000Y-155325000D03*
X203500000Y-142972581D03*
X198616200Y-149583800D03*
%TO.N,/Project Architecture/Audio/I2C_SDA*%
X203900000Y-143300000D03*
D10*
X197181864Y-150198937D03*
D11*
X199048798Y-151700000D03*
X205525000Y-155665000D03*
%TO.N,/Project Architecture/Connectors/Status*%
X203100000Y-142656284D03*
D10*
X197200000Y-149172528D03*
D11*
%TO.N,Net-(IC601-VREF)*%
X205775000Y-156005000D03*
D10*
X205675000Y-154825000D03*
%TO.N,Net-(IC601-HPCFN)*%
X207675000Y-154525000D03*
D11*
X207025000Y-155665000D03*
D10*
%TO.N,Net-(IC601-SP_P)*%
X203125000Y-154875000D03*
D11*
X204775000Y-156005000D03*
%TO.N,Net-(IC601-SP_N)*%
X204525000Y-156345000D03*
D10*
X203125001Y-155875000D03*
D11*
%TO.N,Net-(IC501-SCLK_{SENSOR})*%
X205100000Y-144900000D03*
D10*
X205600000Y-143200000D03*
%TO.N,/Project Architecture/Heartrate/INT_{ACC}*%
X206612502Y-143712500D03*
D11*
X202653033Y-147529741D03*
%TO.N,Net-(IC501-MOSI_{SENSOR})*%
X206400000Y-145500000D03*
%TO.N,Net-(IC501-CS_{PPG})*%
X205500000Y-145500000D03*
%TO.N,Net-(IC501-CS_{ACC})*%
X201606169Y-143268723D03*
D10*
X204600000Y-143700000D03*
D11*
%TO.N,Net-(IC501-INT_{PPG})*%
X207200000Y-145900000D03*
%TO.N,Net-(IC501-MISO_{SENSOR})*%
X206100000Y-144200000D03*
%TO.N,/Project Architecture/Audio/I2S_DIN*%
X206525000Y-155665000D03*
D10*
X207175000Y-154825000D03*
D11*
%TO.N,/Project Architecture/Audio/I2S_MCLK*%
X205025000Y-155665000D03*
D10*
X208600000Y-153500000D03*
%TO.N,/Project Architecture/Connectors/+1V8_HR*%
X200900000Y-147000000D03*
X208572500Y-142800000D03*
D11*
X207202395Y-146302417D03*
D10*
X197290188Y-151299806D03*
X204850000Y-143040000D03*
D11*
%TO.N,/Project Architecture/Audio/+1V8_PA*%
X206275000Y-156005000D03*
D10*
X204845000Y-154445000D03*
X212000000Y-150900000D03*
D11*
X205275000Y-155325000D03*
%TD*%
D12*
%TO.N,VSYS*%
X197400000Y-152500000D02*
X202005000Y-157105000D01*
X197200000Y-150700000D02*
X196939188Y-150960812D01*
X197200000Y-150700000D02*
X199000000Y-150700000D01*
X196939188Y-150960812D02*
X196939188Y-151542191D01*
X197400000Y-152003003D02*
X197400000Y-152500000D01*
X202005000Y-157105000D02*
X203100000Y-157105000D01*
X199700000Y-150000000D02*
X205100000Y-150000000D01*
X199000000Y-150700000D02*
X199700000Y-150000000D01*
X196939188Y-151542191D02*
X197400000Y-152003003D01*
%TO.N,Net-(IC503-LED3-DRV)*%
X207890354Y-146060790D02*
X207890354Y-146209646D01*
X207890354Y-146209646D02*
X206662500Y-147437500D01*
X206662500Y-147437500D02*
X206662500Y-147762500D01*
X206662500Y-147762500D02*
X205687500Y-148737500D01*
%TO.N,Net-(IC503-LED1-DRV)*%
X207500000Y-148500000D02*
X205000000Y-151000000D01*
X207500000Y-147300000D02*
X207500000Y-148500000D01*
%TO.N,Net-(IC503-LED2-DRV)*%
X208600000Y-148050000D02*
X205650000Y-151000000D01*
X208600000Y-146800000D02*
X208600000Y-148050000D01*
%TO.N,Net-(IC601-HPCFN)*%
X207675000Y-154525000D02*
X207675000Y-155015000D01*
X207675000Y-155015000D02*
X207025000Y-155665000D01*
%TO.N,Net-(IC601-SP_P)*%
X204775000Y-156005000D02*
X204255000Y-156005000D01*
X204255000Y-156005000D02*
X203125000Y-154875000D01*
%TO.N,Net-(IC601-SP_N)*%
X203595000Y-156345000D02*
X203125001Y-155875000D01*
X204525000Y-156345000D02*
X203595000Y-156345000D01*
%TO.N,Net-(IC501-SCLK_{SENSOR})*%
X205100000Y-144300000D02*
X205400000Y-144000000D01*
X205400000Y-143400000D02*
X205600000Y-143200000D01*
X205100000Y-144900000D02*
X205100000Y-144300000D01*
X205400000Y-144000000D02*
X205400000Y-143400000D01*
%TO.N,/Project Architecture/Heartrate/INT_{ACC}*%
X206612500Y-143712498D02*
X206612502Y-143712500D01*
%TO.N,Net-(IC501-CS_{ACC})*%
X201941695Y-143268723D02*
X202372972Y-143700000D01*
X202372972Y-143700000D02*
X204600000Y-143700000D01*
X201606169Y-143268723D02*
X201941695Y-143268723D01*
%TO.N,/Project Architecture/Audio/I2S_MCLK*%
X206175000Y-153800000D02*
X204925000Y-155050000D01*
X204925000Y-155050000D02*
X204925000Y-155565000D01*
X208600000Y-153500000D02*
X208300000Y-153800000D01*
X204925000Y-155565000D02*
X205025000Y-155665000D01*
X208300000Y-153800000D02*
X206175000Y-153800000D01*
%TD*%
%TA.AperFunction,Conductor*%
%TO.N,/Project Architecture/Audio/+1V8_PA*%
G36*
X205397005Y-154952759D02*
G01*
X205406937Y-154965702D01*
X205432939Y-155010738D01*
X205432944Y-155010744D01*
X205489255Y-155067055D01*
X205489264Y-155067062D01*
X205519768Y-155084674D01*
X205548888Y-155122624D01*
X205542645Y-155170049D01*
X205515294Y-155217422D01*
X205515292Y-155217428D01*
X205496300Y-155288303D01*
X205496300Y-155336200D01*
X205477994Y-155380394D01*
X205449978Y-155396570D01*
X205417426Y-155405292D01*
X205417423Y-155405294D01*
X205353874Y-155441983D01*
X205319194Y-155476664D01*
X205300404Y-155484447D01*
X205282715Y-155494492D01*
X205279128Y-155493260D01*
X205275000Y-155494970D01*
X205236599Y-155481782D01*
X205233548Y-155479406D01*
X205196126Y-155441984D01*
X205155009Y-155418245D01*
X205151599Y-155415590D01*
X205141758Y-155398260D01*
X205129630Y-155382454D01*
X205128678Y-155375226D01*
X205127978Y-155373993D01*
X205128341Y-155372672D01*
X205127500Y-155366278D01*
X205127500Y-155159765D01*
X205145805Y-155115572D01*
X205308619Y-154952758D01*
X205352811Y-154934453D01*
X205397005Y-154952759D01*
G37*
%TD.AperFunction*%
%TA.AperFunction,Conductor*%
G36*
X210436207Y-143734415D02*
G01*
X210502403Y-143792467D01*
X210671937Y-143941145D01*
X210674922Y-143943941D01*
X211056058Y-144325077D01*
X211058854Y-144328062D01*
X211414244Y-144733307D01*
X211416839Y-144736468D01*
X211744980Y-145164109D01*
X211747362Y-145167434D01*
X212046814Y-145615596D01*
X212048974Y-145619069D01*
X212318482Y-146085870D01*
X212320410Y-146089477D01*
X212558813Y-146572912D01*
X212560500Y-146576637D01*
X212766766Y-147074607D01*
X212768207Y-147078435D01*
X212941469Y-147588848D01*
X212942656Y-147592762D01*
X213082161Y-148113400D01*
X213083090Y-148117383D01*
X213188247Y-148646045D01*
X213188913Y-148650080D01*
X213259268Y-149184476D01*
X213259669Y-149188546D01*
X213294922Y-149726403D01*
X213295056Y-149730491D01*
X213295056Y-150269508D01*
X213294922Y-150273596D01*
X213259669Y-150811453D01*
X213259268Y-150815523D01*
X213188913Y-151349919D01*
X213188247Y-151353954D01*
X213083090Y-151882616D01*
X213082161Y-151886599D01*
X212942656Y-152407237D01*
X212941469Y-152411151D01*
X212768207Y-152921564D01*
X212766766Y-152925392D01*
X212560500Y-153423362D01*
X212558813Y-153427087D01*
X212320410Y-153910522D01*
X212318482Y-153914129D01*
X212048974Y-154380930D01*
X212046814Y-154384403D01*
X211747362Y-154832565D01*
X211744980Y-154835890D01*
X211416839Y-155263531D01*
X211414244Y-155266692D01*
X211058854Y-155671937D01*
X211056058Y-155674922D01*
X210674922Y-156056058D01*
X210671937Y-156058854D01*
X210266692Y-156414244D01*
X210263531Y-156416839D01*
X209835890Y-156744980D01*
X209832565Y-156747362D01*
X209384403Y-157046814D01*
X209380930Y-157048974D01*
X208914129Y-157318482D01*
X208910522Y-157320410D01*
X208427087Y-157558813D01*
X208423362Y-157560500D01*
X207925392Y-157766766D01*
X207921564Y-157768207D01*
X207411151Y-157941469D01*
X207407237Y-157942656D01*
X206886599Y-158082161D01*
X206882616Y-158083090D01*
X206353954Y-158188247D01*
X206349919Y-158188913D01*
X205815523Y-158259268D01*
X205811453Y-158259669D01*
X205273596Y-158294922D01*
X205269508Y-158295056D01*
X204730492Y-158295056D01*
X204726404Y-158294922D01*
X204188546Y-158259669D01*
X204184476Y-158259268D01*
X203650080Y-158188913D01*
X203646045Y-158188247D01*
X203117383Y-158083090D01*
X203113400Y-158082161D01*
X202592762Y-157942656D01*
X202588848Y-157941469D01*
X202078435Y-157768207D01*
X202074620Y-157766772D01*
X202055425Y-157758821D01*
X202055424Y-157758820D01*
X201925901Y-157705170D01*
X203397500Y-157705170D01*
X203397500Y-157784829D01*
X203418115Y-157861761D01*
X203418115Y-157861763D01*
X203457939Y-157930738D01*
X203457944Y-157930744D01*
X203514255Y-157987055D01*
X203514261Y-157987060D01*
X203583239Y-158026885D01*
X203627654Y-158038786D01*
X203660170Y-158047499D01*
X203660173Y-158047499D01*
X203660175Y-158047500D01*
X203660176Y-158047500D01*
X203739824Y-158047500D01*
X203739825Y-158047500D01*
X203816761Y-158026885D01*
X203885739Y-157987060D01*
X203942060Y-157930739D01*
X203981885Y-157861761D01*
X204002500Y-157784825D01*
X204002500Y-157705175D01*
X203997293Y-157685744D01*
X203995088Y-157677512D01*
X203981885Y-157628239D01*
X203981884Y-157628237D01*
X203981884Y-157628236D01*
X203942060Y-157559261D01*
X203942055Y-157559255D01*
X203885744Y-157502944D01*
X203885738Y-157502939D01*
X203816762Y-157463115D01*
X203805772Y-157460170D01*
X204997500Y-157460170D01*
X204997500Y-157539829D01*
X205018115Y-157616761D01*
X205018115Y-157616763D01*
X205057939Y-157685738D01*
X205057944Y-157685744D01*
X205114255Y-157742055D01*
X205114261Y-157742060D01*
X205183239Y-157781885D01*
X205227654Y-157793786D01*
X205260170Y-157802499D01*
X205260173Y-157802499D01*
X205260175Y-157802500D01*
X205260176Y-157802500D01*
X205339824Y-157802500D01*
X205339825Y-157802500D01*
X205416761Y-157781885D01*
X205485739Y-157742060D01*
X205542060Y-157685739D01*
X205579322Y-157621201D01*
X205581884Y-157616763D01*
X205581884Y-157616762D01*
X205581885Y-157616761D01*
X205602500Y-157539825D01*
X205602500Y-157460175D01*
X205588385Y-157407499D01*
X205585204Y-157395627D01*
X206539569Y-157395627D01*
X206539569Y-157475286D01*
X206560184Y-157552218D01*
X206560184Y-157552220D01*
X206600008Y-157621195D01*
X206600013Y-157621201D01*
X206656324Y-157677512D01*
X206656330Y-157677517D01*
X206725308Y-157717342D01*
X206769723Y-157729243D01*
X206802239Y-157737956D01*
X206802242Y-157737956D01*
X206802244Y-157737957D01*
X206802245Y-157737957D01*
X206881893Y-157737957D01*
X206881894Y-157737957D01*
X206958830Y-157717342D01*
X207027808Y-157677517D01*
X207084129Y-157621196D01*
X207123954Y-157552218D01*
X207144569Y-157475282D01*
X207144569Y-157395632D01*
X207141247Y-157383236D01*
X207131553Y-157347056D01*
X207123954Y-157318696D01*
X207123953Y-157318694D01*
X207123953Y-157318693D01*
X207084129Y-157249718D01*
X207084124Y-157249712D01*
X207027813Y-157193401D01*
X207027807Y-157193396D01*
X206958831Y-157153572D01*
X206881898Y-157132957D01*
X206881894Y-157132957D01*
X206802244Y-157132957D01*
X206802239Y-157132957D01*
X206725307Y-157153572D01*
X206725305Y-157153572D01*
X206656330Y-157193396D01*
X206656324Y-157193401D01*
X206600013Y-157249712D01*
X206600008Y-157249718D01*
X206560184Y-157318693D01*
X206560184Y-157318695D01*
X206539569Y-157395627D01*
X205585204Y-157395627D01*
X205581885Y-157383239D01*
X205581884Y-157383237D01*
X205581884Y-157383236D01*
X205542060Y-157314261D01*
X205542055Y-157314255D01*
X205485744Y-157257944D01*
X205485738Y-157257939D01*
X205416762Y-157218115D01*
X205339829Y-157197500D01*
X205339825Y-157197500D01*
X205260175Y-157197500D01*
X205260170Y-157197500D01*
X205183238Y-157218115D01*
X205183236Y-157218115D01*
X205114261Y-157257939D01*
X205114255Y-157257944D01*
X205057944Y-157314255D01*
X205057939Y-157314261D01*
X205018115Y-157383236D01*
X205018115Y-157383238D01*
X204997500Y-157460170D01*
X203805772Y-157460170D01*
X203739829Y-157442500D01*
X203739825Y-157442500D01*
X203660175Y-157442500D01*
X203660170Y-157442500D01*
X203583238Y-157463115D01*
X203583236Y-157463115D01*
X203514261Y-157502939D01*
X203514255Y-157502944D01*
X203457944Y-157559255D01*
X203457939Y-157559261D01*
X203418115Y-157628236D01*
X203418115Y-157628238D01*
X203397500Y-157705170D01*
X201925901Y-157705170D01*
X201576637Y-157560500D01*
X201572912Y-157558813D01*
X201089477Y-157320410D01*
X201085870Y-157318482D01*
X200619069Y-157048974D01*
X200615596Y-157046814D01*
X200167434Y-156747362D01*
X200164109Y-156744980D01*
X199736468Y-156416839D01*
X199733307Y-156414244D01*
X199328062Y-156058854D01*
X199325077Y-156056058D01*
X198943941Y-155674922D01*
X198941145Y-155671937D01*
X198585755Y-155266692D01*
X198583160Y-155263531D01*
X198255019Y-154835890D01*
X198252637Y-154832565D01*
X197953185Y-154384403D01*
X197951025Y-154380930D01*
X197681517Y-153914129D01*
X197679589Y-153910522D01*
X197616152Y-153781885D01*
X197441186Y-153427087D01*
X197439499Y-153423362D01*
X197313185Y-153118413D01*
X197313185Y-153070577D01*
X197347009Y-153036753D01*
X197359812Y-153033548D01*
X197359723Y-153033099D01*
X197362734Y-153032500D01*
X197413440Y-153022414D01*
X197457634Y-153004108D01*
X197482495Y-152990533D01*
X197493127Y-152977339D01*
X197535110Y-152954415D01*
X197581008Y-152967892D01*
X197585985Y-152972363D01*
X201890293Y-157276671D01*
X201890294Y-157276671D01*
X201890296Y-157276673D01*
X201964717Y-157307499D01*
X201964720Y-157307500D01*
X202045279Y-157307500D01*
X202848813Y-157307500D01*
X202893007Y-157325806D01*
X202893008Y-157325807D01*
X202914256Y-157347056D01*
X202914261Y-157347060D01*
X202983239Y-157386885D01*
X203015887Y-157395633D01*
X203060170Y-157407499D01*
X203060173Y-157407499D01*
X203060175Y-157407500D01*
X203060176Y-157407500D01*
X203139824Y-157407500D01*
X203139825Y-157407500D01*
X203216761Y-157386885D01*
X203285739Y-157347060D01*
X203342060Y-157290739D01*
X203381885Y-157221761D01*
X203402500Y-157144825D01*
X203402500Y-157065175D01*
X203381885Y-156988239D01*
X203381884Y-156988237D01*
X203381884Y-156988236D01*
X203342060Y-156919261D01*
X203342055Y-156919255D01*
X203285744Y-156862944D01*
X203285738Y-156862939D01*
X203216762Y-156823115D01*
X203139829Y-156802500D01*
X203139825Y-156802500D01*
X203060175Y-156802500D01*
X203060170Y-156802500D01*
X202983238Y-156823115D01*
X202983236Y-156823115D01*
X202914261Y-156862939D01*
X202914256Y-156862943D01*
X202893008Y-156884193D01*
X202848814Y-156902500D01*
X202114766Y-156902500D01*
X202070572Y-156884194D01*
X200021548Y-154835170D01*
X202822500Y-154835170D01*
X202822500Y-154914829D01*
X202843115Y-154991761D01*
X202843115Y-154991763D01*
X202882939Y-155060738D01*
X202882944Y-155060744D01*
X202939255Y-155117055D01*
X202939261Y-155117060D01*
X203008239Y-155156885D01*
X203052654Y-155168786D01*
X203085170Y-155177499D01*
X203085173Y-155177499D01*
X203085175Y-155177500D01*
X203115234Y-155177500D01*
X203159428Y-155195806D01*
X203999428Y-156035806D01*
X204017734Y-156080000D01*
X203999428Y-156124194D01*
X203955234Y-156142500D01*
X203704766Y-156142500D01*
X203660572Y-156124194D01*
X203445807Y-155909428D01*
X203427501Y-155865234D01*
X203427501Y-155835176D01*
X203427500Y-155835170D01*
X203418746Y-155802500D01*
X203406886Y-155758239D01*
X203406885Y-155758237D01*
X203406885Y-155758236D01*
X203367061Y-155689261D01*
X203367056Y-155689255D01*
X203310745Y-155632944D01*
X203310739Y-155632939D01*
X203241763Y-155593115D01*
X203164830Y-155572500D01*
X203164826Y-155572500D01*
X203085176Y-155572500D01*
X203085171Y-155572500D01*
X203008239Y-155593115D01*
X203008237Y-155593115D01*
X202939262Y-155632939D01*
X202939256Y-155632944D01*
X202882945Y-155689255D01*
X202882940Y-155689261D01*
X202843116Y-155758236D01*
X202843116Y-155758238D01*
X202822501Y-155835170D01*
X202822501Y-155914829D01*
X202843116Y-155991761D01*
X202843116Y-155991763D01*
X202882940Y-156060738D01*
X202882945Y-156060744D01*
X202939256Y-156117055D01*
X202939262Y-156117060D01*
X203008240Y-156156885D01*
X203052655Y-156168786D01*
X203085171Y-156177499D01*
X203085174Y-156177499D01*
X203085176Y-156177500D01*
X203115234Y-156177500D01*
X203159428Y-156195806D01*
X203423329Y-156459707D01*
X203480293Y-156516671D01*
X203480294Y-156516671D01*
X203480296Y-156516673D01*
X203554717Y-156547499D01*
X203554720Y-156547500D01*
X204307470Y-156547500D01*
X204351664Y-156565806D01*
X204353874Y-156568016D01*
X204417426Y-156604707D01*
X204460803Y-156616330D01*
X204488303Y-156623699D01*
X204488305Y-156623699D01*
X204488308Y-156623700D01*
X204488310Y-156623700D01*
X204561690Y-156623700D01*
X204561692Y-156623700D01*
X204632574Y-156604707D01*
X204696126Y-156568016D01*
X204748016Y-156516126D01*
X204784707Y-156452574D01*
X204803700Y-156381692D01*
X204803700Y-156333799D01*
X204815559Y-156305170D01*
X209097500Y-156305170D01*
X209097500Y-156384829D01*
X209118115Y-156461761D01*
X209118115Y-156461763D01*
X209157939Y-156530738D01*
X209157944Y-156530744D01*
X209214255Y-156587055D01*
X209214261Y-156587060D01*
X209283239Y-156626885D01*
X209327654Y-156638786D01*
X209360170Y-156647499D01*
X209360173Y-156647499D01*
X209360175Y-156647500D01*
X209360176Y-156647500D01*
X209439824Y-156647500D01*
X209439825Y-156647500D01*
X209516761Y-156626885D01*
X209585739Y-156587060D01*
X209642060Y-156530739D01*
X209681885Y-156461761D01*
X209702500Y-156384825D01*
X209702500Y-156305175D01*
X209681885Y-156228239D01*
X209681884Y-156228237D01*
X209681884Y-156228236D01*
X209642060Y-156159261D01*
X209642055Y-156159255D01*
X209585744Y-156102944D01*
X209585738Y-156102939D01*
X209516762Y-156063115D01*
X209439829Y-156042500D01*
X209439825Y-156042500D01*
X209360175Y-156042500D01*
X209360170Y-156042500D01*
X209283238Y-156063115D01*
X209283236Y-156063115D01*
X209214261Y-156102939D01*
X209214255Y-156102944D01*
X209157944Y-156159255D01*
X209157939Y-156159261D01*
X209118115Y-156228236D01*
X209118115Y-156228238D01*
X209097500Y-156305170D01*
X204815559Y-156305170D01*
X204822006Y-156289605D01*
X204850024Y-156273429D01*
X204882570Y-156264708D01*
X204882569Y-156264708D01*
X204882574Y-156264707D01*
X204946126Y-156228016D01*
X204980806Y-156193336D01*
X205025000Y-156175030D01*
X205069194Y-156193336D01*
X205103874Y-156228016D01*
X205167426Y-156264707D01*
X205199977Y-156273429D01*
X205238303Y-156283699D01*
X205238305Y-156283699D01*
X205238308Y-156283700D01*
X205238310Y-156283700D01*
X205311690Y-156283700D01*
X205311692Y-156283700D01*
X205382574Y-156264707D01*
X205446126Y-156228016D01*
X205480806Y-156193336D01*
X205525000Y-156175030D01*
X205569194Y-156193336D01*
X205603874Y-156228016D01*
X205667426Y-156264707D01*
X205699977Y-156273429D01*
X205738303Y-156283699D01*
X205738305Y-156283699D01*
X205738308Y-156283700D01*
X205738310Y-156283700D01*
X205811690Y-156283700D01*
X205811692Y-156283700D01*
X205882574Y-156264707D01*
X205946126Y-156228016D01*
X205998016Y-156176126D01*
X206034707Y-156112574D01*
X206052141Y-156047508D01*
X206053699Y-156041696D01*
X206053700Y-156041690D01*
X206053700Y-155968309D01*
X206053699Y-155968303D01*
X206037923Y-155909428D01*
X206034707Y-155897426D01*
X205998016Y-155833874D01*
X205946126Y-155781984D01*
X205946125Y-155781983D01*
X205882576Y-155745294D01*
X205882573Y-155745292D01*
X205850022Y-155736570D01*
X205837077Y-155726637D01*
X205822006Y-155720394D01*
X205818773Y-155712591D01*
X205812073Y-155707449D01*
X205803700Y-155676200D01*
X205803700Y-155653799D01*
X205814261Y-155628303D01*
X206246300Y-155628303D01*
X206246300Y-155701696D01*
X206265292Y-155772571D01*
X206265294Y-155772576D01*
X206301435Y-155835176D01*
X206301984Y-155836126D01*
X206353874Y-155888016D01*
X206417426Y-155924707D01*
X206417428Y-155924707D01*
X206417429Y-155924708D01*
X206449976Y-155933429D01*
X206487927Y-155962549D01*
X206496300Y-155993799D01*
X206496300Y-156041696D01*
X206515292Y-156112571D01*
X206515294Y-156112576D01*
X206542243Y-156159255D01*
X206551984Y-156176126D01*
X206603874Y-156228016D01*
X206667426Y-156264707D01*
X206699977Y-156273429D01*
X206738303Y-156283699D01*
X206738305Y-156283699D01*
X206738308Y-156283700D01*
X206738310Y-156283700D01*
X206811690Y-156283700D01*
X206811692Y-156283700D01*
X206882574Y-156264707D01*
X206946126Y-156228016D01*
X206980806Y-156193336D01*
X207025000Y-156175030D01*
X207069194Y-156193336D01*
X207103874Y-156228016D01*
X207167426Y-156264707D01*
X207199977Y-156273429D01*
X207238303Y-156283699D01*
X207238305Y-156283699D01*
X207238308Y-156283700D01*
X207238310Y-156283700D01*
X207311690Y-156283700D01*
X207311692Y-156283700D01*
X207382574Y-156264707D01*
X207446126Y-156228016D01*
X207498016Y-156176126D01*
X207534707Y-156112574D01*
X207552141Y-156047508D01*
X207553699Y-156041696D01*
X207553700Y-156041690D01*
X207553700Y-155968309D01*
X207553699Y-155968303D01*
X207537923Y-155909428D01*
X207534707Y-155897426D01*
X207498016Y-155833874D01*
X207446126Y-155781984D01*
X207446125Y-155781983D01*
X207382576Y-155745294D01*
X207382570Y-155745291D01*
X207367662Y-155741297D01*
X207329711Y-155712177D01*
X207323468Y-155664751D01*
X207339642Y-155636735D01*
X207816209Y-155160170D01*
X208597500Y-155160170D01*
X208597500Y-155239829D01*
X208618115Y-155316761D01*
X208618115Y-155316763D01*
X208657939Y-155385738D01*
X208657944Y-155385744D01*
X208714255Y-155442055D01*
X208714261Y-155442060D01*
X208783060Y-155481782D01*
X208783239Y-155481885D01*
X208825691Y-155493260D01*
X208860170Y-155502499D01*
X208860173Y-155502499D01*
X208860175Y-155502500D01*
X208860176Y-155502500D01*
X208939824Y-155502500D01*
X208939825Y-155502500D01*
X209016761Y-155481885D01*
X209016940Y-155481782D01*
X209031340Y-155473467D01*
X209085739Y-155442060D01*
X209142060Y-155385739D01*
X209181885Y-155316761D01*
X209202500Y-155239825D01*
X209202500Y-155160175D01*
X209201618Y-155156885D01*
X209188221Y-155106885D01*
X209181885Y-155083239D01*
X209181884Y-155083237D01*
X209181884Y-155083236D01*
X209142060Y-155014261D01*
X209142055Y-155014255D01*
X209085744Y-154957944D01*
X209085738Y-154957939D01*
X209016762Y-154918115D01*
X208939829Y-154897500D01*
X208939825Y-154897500D01*
X208860175Y-154897500D01*
X208860170Y-154897500D01*
X208783238Y-154918115D01*
X208783236Y-154918115D01*
X208714261Y-154957939D01*
X208714255Y-154957944D01*
X208657944Y-155014255D01*
X208657939Y-155014261D01*
X208618115Y-155083236D01*
X208618115Y-155083238D01*
X208597500Y-155160170D01*
X207816209Y-155160170D01*
X207846672Y-155129707D01*
X207877500Y-155055280D01*
X207877500Y-154974720D01*
X207877500Y-154776187D01*
X207895806Y-154731993D01*
X207917056Y-154710743D01*
X207917060Y-154710739D01*
X207956885Y-154641761D01*
X207977500Y-154564825D01*
X207977500Y-154485175D01*
X207956885Y-154408239D01*
X207956884Y-154408237D01*
X207956884Y-154408236D01*
X207917060Y-154339261D01*
X207917055Y-154339255D01*
X207860744Y-154282944D01*
X207860738Y-154282939D01*
X207791762Y-154243115D01*
X207714829Y-154222500D01*
X207714825Y-154222500D01*
X207635175Y-154222500D01*
X207635170Y-154222500D01*
X207558238Y-154243115D01*
X207558236Y-154243115D01*
X207489261Y-154282939D01*
X207489255Y-154282944D01*
X207432944Y-154339255D01*
X207432939Y-154339261D01*
X207393115Y-154408236D01*
X207393115Y-154408238D01*
X207372500Y-154485170D01*
X207371966Y-154489234D01*
X207370140Y-154488993D01*
X207354194Y-154527491D01*
X207310000Y-154545797D01*
X207293824Y-154543667D01*
X207214831Y-154522501D01*
X207214826Y-154522500D01*
X207214825Y-154522500D01*
X207135175Y-154522500D01*
X207135170Y-154522500D01*
X207058238Y-154543115D01*
X207058236Y-154543115D01*
X206989261Y-154582939D01*
X206989255Y-154582944D01*
X206932944Y-154639255D01*
X206932939Y-154639261D01*
X206893115Y-154708236D01*
X206893115Y-154708238D01*
X206872500Y-154785170D01*
X206872500Y-154864829D01*
X206893115Y-154941761D01*
X206893115Y-154941763D01*
X206932939Y-155010738D01*
X206932944Y-155010744D01*
X206989255Y-155067055D01*
X206989261Y-155067060D01*
X207058239Y-155106885D01*
X207096194Y-155117055D01*
X207139133Y-155128561D01*
X207138734Y-155130049D01*
X207175494Y-155151268D01*
X207187879Y-155197472D01*
X207170107Y-155233514D01*
X207035628Y-155367994D01*
X206991434Y-155386300D01*
X206988303Y-155386300D01*
X206917428Y-155405292D01*
X206917423Y-155405294D01*
X206853874Y-155441983D01*
X206819194Y-155476664D01*
X206775000Y-155494970D01*
X206730806Y-155476664D01*
X206696125Y-155441983D01*
X206632576Y-155405294D01*
X206632571Y-155405292D01*
X206561696Y-155386300D01*
X206561692Y-155386300D01*
X206488308Y-155386300D01*
X206488303Y-155386300D01*
X206417428Y-155405292D01*
X206417423Y-155405294D01*
X206353874Y-155441983D01*
X206301983Y-155493874D01*
X206265294Y-155557423D01*
X206265292Y-155557428D01*
X206246300Y-155628303D01*
X205814261Y-155628303D01*
X205822006Y-155609605D01*
X205850024Y-155593429D01*
X205882570Y-155584708D01*
X205882569Y-155584708D01*
X205882574Y-155584707D01*
X205946126Y-155548016D01*
X205998016Y-155496126D01*
X206034707Y-155432574D01*
X206053700Y-155361692D01*
X206053700Y-155288308D01*
X206034707Y-155217426D01*
X205998016Y-155153874D01*
X205946126Y-155101984D01*
X205938943Y-155097837D01*
X205909822Y-155059888D01*
X205916064Y-155012462D01*
X205916066Y-155012459D01*
X205917057Y-155010741D01*
X205917060Y-155010739D01*
X205956885Y-154941761D01*
X205977500Y-154864825D01*
X205977500Y-154785175D01*
X205956885Y-154708239D01*
X205956884Y-154708237D01*
X205956884Y-154708236D01*
X205917060Y-154639261D01*
X205917055Y-154639255D01*
X205860744Y-154582944D01*
X205860738Y-154582939D01*
X205815702Y-154556937D01*
X205786582Y-154518986D01*
X205792827Y-154471560D01*
X205802755Y-154458621D01*
X206240572Y-154020806D01*
X206284766Y-154002500D01*
X208340280Y-154002500D01*
X208365089Y-153992223D01*
X208414703Y-153971673D01*
X208414703Y-153971672D01*
X208414707Y-153971671D01*
X208565572Y-153820806D01*
X208609766Y-153802500D01*
X208639824Y-153802500D01*
X208639825Y-153802500D01*
X208716761Y-153781885D01*
X208785739Y-153742060D01*
X208842060Y-153685739D01*
X208881885Y-153616761D01*
X208902500Y-153539825D01*
X208902500Y-153460175D01*
X208881885Y-153383239D01*
X208881884Y-153383237D01*
X208881884Y-153383236D01*
X208842060Y-153314261D01*
X208842055Y-153314255D01*
X208785744Y-153257944D01*
X208785738Y-153257939D01*
X208716762Y-153218115D01*
X208639829Y-153197500D01*
X208639825Y-153197500D01*
X208560175Y-153197500D01*
X208560170Y-153197500D01*
X208483238Y-153218115D01*
X208483236Y-153218115D01*
X208414261Y-153257939D01*
X208414255Y-153257944D01*
X208357944Y-153314255D01*
X208357939Y-153314261D01*
X208318115Y-153383236D01*
X208318115Y-153383238D01*
X208297500Y-153460170D01*
X208297500Y-153490234D01*
X208279194Y-153534428D01*
X208234428Y-153579194D01*
X208190234Y-153597500D01*
X206134717Y-153597500D01*
X206060296Y-153628326D01*
X206060291Y-153628330D01*
X204753330Y-154935291D01*
X204753326Y-154935296D01*
X204722500Y-155009717D01*
X204722500Y-155009720D01*
X204722500Y-155524720D01*
X204722500Y-155605280D01*
X204741542Y-155651251D01*
X204746300Y-155675168D01*
X204746300Y-155676200D01*
X204727994Y-155720394D01*
X204699978Y-155736570D01*
X204667426Y-155745292D01*
X204667423Y-155745294D01*
X204603874Y-155781983D01*
X204601664Y-155784194D01*
X204557470Y-155802500D01*
X204364766Y-155802500D01*
X204320572Y-155784194D01*
X203445806Y-154909428D01*
X203427500Y-154865234D01*
X203427500Y-154835176D01*
X203427499Y-154835170D01*
X203420964Y-154810783D01*
X203406885Y-154758239D01*
X203406884Y-154758237D01*
X203406884Y-154758236D01*
X203367060Y-154689261D01*
X203367055Y-154689255D01*
X203310744Y-154632944D01*
X203310738Y-154632939D01*
X203241762Y-154593115D01*
X203164829Y-154572500D01*
X203164825Y-154572500D01*
X203085175Y-154572500D01*
X203085170Y-154572500D01*
X203008238Y-154593115D01*
X203008236Y-154593115D01*
X202939261Y-154632939D01*
X202939255Y-154632944D01*
X202882944Y-154689255D01*
X202882939Y-154689261D01*
X202843115Y-154758236D01*
X202843115Y-154758238D01*
X202822500Y-154835170D01*
X200021548Y-154835170D01*
X199446548Y-154260170D01*
X203397500Y-154260170D01*
X203397500Y-154339829D01*
X203418115Y-154416761D01*
X203418115Y-154416763D01*
X203457939Y-154485738D01*
X203457944Y-154485744D01*
X203514255Y-154542055D01*
X203514261Y-154542060D01*
X203553697Y-154564829D01*
X203583239Y-154581885D01*
X203625150Y-154593115D01*
X203660170Y-154602499D01*
X203660173Y-154602499D01*
X203660175Y-154602500D01*
X203660176Y-154602500D01*
X203739824Y-154602500D01*
X203739825Y-154602500D01*
X203816761Y-154581885D01*
X203885739Y-154542060D01*
X203942060Y-154485739D01*
X203981885Y-154416761D01*
X204002500Y-154339825D01*
X204002500Y-154260175D01*
X203981885Y-154183239D01*
X203981884Y-154183237D01*
X203981884Y-154183236D01*
X203942060Y-154114261D01*
X203942055Y-154114255D01*
X203885744Y-154057944D01*
X203885738Y-154057939D01*
X203816762Y-154018115D01*
X203739829Y-153997500D01*
X203739825Y-153997500D01*
X203660175Y-153997500D01*
X203660170Y-153997500D01*
X203583238Y-154018115D01*
X203583236Y-154018115D01*
X203514261Y-154057939D01*
X203514255Y-154057944D01*
X203457944Y-154114255D01*
X203457939Y-154114261D01*
X203418115Y-154183236D01*
X203418115Y-154183238D01*
X203397500Y-154260170D01*
X199446548Y-154260170D01*
X198325572Y-153139194D01*
X198307266Y-153095000D01*
X198325572Y-153050806D01*
X198369766Y-153032500D01*
X210137500Y-153032500D01*
X210188206Y-153022414D01*
X210232400Y-153004108D01*
X210257261Y-152990533D01*
X210304108Y-152932400D01*
X210322414Y-152888206D01*
X210332500Y-152837500D01*
X210332500Y-151360170D01*
X211697500Y-151360170D01*
X211697500Y-151439829D01*
X211718115Y-151516761D01*
X211718115Y-151516763D01*
X211757939Y-151585738D01*
X211757944Y-151585744D01*
X211814255Y-151642055D01*
X211814261Y-151642060D01*
X211883239Y-151681885D01*
X211927654Y-151693786D01*
X211960170Y-151702499D01*
X211960173Y-151702499D01*
X211960175Y-151702500D01*
X211960176Y-151702500D01*
X212039824Y-151702500D01*
X212039825Y-151702500D01*
X212116761Y-151681885D01*
X212185739Y-151642060D01*
X212242060Y-151585739D01*
X212281885Y-151516761D01*
X212302500Y-151439825D01*
X212302500Y-151360175D01*
X212300296Y-151351951D01*
X212295964Y-151335783D01*
X212281885Y-151283239D01*
X212281884Y-151283237D01*
X212281884Y-151283236D01*
X212242060Y-151214261D01*
X212242055Y-151214255D01*
X212185744Y-151157944D01*
X212185738Y-151157939D01*
X212116762Y-151118115D01*
X212039829Y-151097500D01*
X212039825Y-151097500D01*
X211960175Y-151097500D01*
X211960170Y-151097500D01*
X211883238Y-151118115D01*
X211883236Y-151118115D01*
X211814261Y-151157939D01*
X211814255Y-151157944D01*
X211757944Y-151214255D01*
X211757939Y-151214261D01*
X211718115Y-151283236D01*
X211718115Y-151283238D01*
X211697500Y-151360170D01*
X210332500Y-151360170D01*
X210332500Y-145678688D01*
X210322414Y-145627982D01*
X210304108Y-145583788D01*
X210304105Y-145583782D01*
X210304101Y-145583774D01*
X210290535Y-145558930D01*
X210290534Y-145558929D01*
X210290533Y-145558927D01*
X210232400Y-145512080D01*
X210232398Y-145512079D01*
X210232397Y-145512078D01*
X210230628Y-145511028D01*
X210229919Y-145510081D01*
X210228919Y-145509275D01*
X210229124Y-145509019D01*
X210201966Y-145472729D01*
X210200027Y-145457286D01*
X210200026Y-145449056D01*
X210202500Y-145439825D01*
X210202500Y-145360175D01*
X210200018Y-145350914D01*
X210200018Y-145342689D01*
X210206260Y-145327615D01*
X210208388Y-145311440D01*
X210216061Y-145303946D01*
X210218320Y-145298493D01*
X210224096Y-145296099D01*
X210232565Y-145287829D01*
X210257261Y-145274345D01*
X210304108Y-145216212D01*
X210322414Y-145172018D01*
X210332500Y-145121312D01*
X210332500Y-143781406D01*
X210350806Y-143737212D01*
X210395000Y-143718906D01*
X210436207Y-143734415D01*
G37*
%TD.AperFunction*%
%TD*%
%TA.AperFunction,Conductor*%
%TO.N,/Project Architecture/Connectors/+1V8_HR*%
G36*
X205273596Y-141705078D02*
G01*
X205811461Y-141740330D01*
X205815515Y-141740730D01*
X206349933Y-141811088D01*
X206353941Y-141811749D01*
X206882632Y-141916912D01*
X206886583Y-141917834D01*
X207407242Y-142057344D01*
X207411146Y-142058528D01*
X207921564Y-142231792D01*
X207925389Y-142233231D01*
X207973244Y-142253054D01*
X208423362Y-142439499D01*
X208427087Y-142441186D01*
X208853098Y-142651271D01*
X208910522Y-142679589D01*
X208914127Y-142681516D01*
X208933983Y-142692980D01*
X209380930Y-142951025D01*
X209384403Y-142953185D01*
X209717820Y-143175967D01*
X209830535Y-143251281D01*
X209832565Y-143252637D01*
X209835889Y-143255018D01*
X210175549Y-143515649D01*
X210199465Y-143557074D01*
X210200000Y-143565232D01*
X210200000Y-145121312D01*
X210181694Y-145165506D01*
X210137500Y-145183812D01*
X210093306Y-145165506D01*
X210085744Y-145157944D01*
X210085738Y-145157939D01*
X210016762Y-145118115D01*
X209939829Y-145097500D01*
X209939825Y-145097500D01*
X209860175Y-145097500D01*
X209860170Y-145097500D01*
X209783238Y-145118115D01*
X209783236Y-145118115D01*
X209714261Y-145157939D01*
X209714255Y-145157944D01*
X209657944Y-145214255D01*
X209657939Y-145214261D01*
X209618115Y-145283236D01*
X209618115Y-145283238D01*
X209597500Y-145360170D01*
X209597500Y-145439829D01*
X209618115Y-145516761D01*
X209618115Y-145516763D01*
X209657939Y-145585738D01*
X209657944Y-145585744D01*
X209714255Y-145642055D01*
X209714261Y-145642060D01*
X209777701Y-145678688D01*
X209783239Y-145681885D01*
X209827654Y-145693786D01*
X209860170Y-145702499D01*
X209860173Y-145702499D01*
X209860175Y-145702500D01*
X209860176Y-145702500D01*
X209939824Y-145702500D01*
X209939825Y-145702500D01*
X210016761Y-145681885D01*
X210025252Y-145676983D01*
X210035398Y-145671125D01*
X210085739Y-145642060D01*
X210087507Y-145640292D01*
X210093306Y-145634494D01*
X210137500Y-145616188D01*
X210181694Y-145634494D01*
X210200000Y-145678688D01*
X210200000Y-152837500D01*
X210181694Y-152881694D01*
X210137500Y-152900000D01*
X198112266Y-152900000D01*
X198068072Y-152881694D01*
X197620806Y-152434428D01*
X197602500Y-152390234D01*
X197602500Y-151962725D01*
X197602499Y-151962721D01*
X197592356Y-151938231D01*
X197592356Y-151938230D01*
X197571673Y-151888298D01*
X197571672Y-151888297D01*
X197571672Y-151888296D01*
X197477338Y-151793962D01*
X198351959Y-151793962D01*
X198351959Y-151867355D01*
X198370951Y-151938230D01*
X198370951Y-151938231D01*
X198394314Y-151978699D01*
X198407643Y-152001785D01*
X198459533Y-152053675D01*
X198523085Y-152090366D01*
X198566462Y-152101989D01*
X198593962Y-152109358D01*
X198593964Y-152109358D01*
X198593967Y-152109359D01*
X198593969Y-152109359D01*
X198667349Y-152109359D01*
X198667351Y-152109359D01*
X198738233Y-152090366D01*
X198801785Y-152053675D01*
X198853675Y-152001785D01*
X198862770Y-151986030D01*
X198900718Y-151956910D01*
X198937095Y-151959292D01*
X198937268Y-151958647D01*
X198940512Y-151959516D01*
X198940812Y-151959536D01*
X198941218Y-151959704D01*
X198941224Y-151959707D01*
X198984601Y-151971330D01*
X199012101Y-151978699D01*
X199012103Y-151978699D01*
X199012106Y-151978700D01*
X199012108Y-151978700D01*
X199085488Y-151978700D01*
X199085490Y-151978700D01*
X199156372Y-151959707D01*
X199219924Y-151923016D01*
X199271814Y-151871126D01*
X199308505Y-151807574D01*
X199327498Y-151736692D01*
X199327498Y-151663308D01*
X199326486Y-151659533D01*
X199310335Y-151599257D01*
X199308505Y-151592426D01*
X199271814Y-151528874D01*
X199219924Y-151476984D01*
X199219923Y-151476983D01*
X199156374Y-151440294D01*
X199156369Y-151440292D01*
X199085494Y-151421300D01*
X199085490Y-151421300D01*
X199012106Y-151421300D01*
X199012101Y-151421300D01*
X198941226Y-151440292D01*
X198941221Y-151440294D01*
X198877672Y-151476983D01*
X198825781Y-151528874D01*
X198816685Y-151544629D01*
X198778734Y-151573749D01*
X198742361Y-151571367D01*
X198742189Y-151572012D01*
X198738947Y-151571143D01*
X198738651Y-151571124D01*
X198738239Y-151570953D01*
X198667355Y-151551959D01*
X198667351Y-151551959D01*
X198593967Y-151551959D01*
X198593962Y-151551959D01*
X198523087Y-151570951D01*
X198523082Y-151570953D01*
X198459533Y-151607642D01*
X198407642Y-151659533D01*
X198370953Y-151723082D01*
X198370951Y-151723087D01*
X198351959Y-151793962D01*
X197477338Y-151793962D01*
X197159994Y-151476618D01*
X197141688Y-151432424D01*
X197141688Y-151070578D01*
X197159994Y-151026384D01*
X197165572Y-151020806D01*
X197209766Y-151002500D01*
X197239824Y-151002500D01*
X197239825Y-151002500D01*
X197316761Y-150981885D01*
X197385739Y-150942060D01*
X197406992Y-150920807D01*
X197451186Y-150902500D01*
X199040280Y-150902500D01*
X199065089Y-150892223D01*
X199114703Y-150871673D01*
X199114703Y-150871672D01*
X199114707Y-150871671D01*
X199248075Y-150738303D01*
X201371300Y-150738303D01*
X201371300Y-150811696D01*
X201390292Y-150882571D01*
X201390294Y-150882576D01*
X201426983Y-150946125D01*
X201474164Y-150993306D01*
X201492470Y-151037500D01*
X201474164Y-151081694D01*
X201426983Y-151128874D01*
X201390294Y-151192423D01*
X201390292Y-151192428D01*
X201371300Y-151263303D01*
X201371300Y-151336696D01*
X201390292Y-151407571D01*
X201390294Y-151407576D01*
X201419134Y-151457530D01*
X201426984Y-151471126D01*
X201478874Y-151523016D01*
X201542426Y-151559707D01*
X201584389Y-151570951D01*
X201613303Y-151578699D01*
X201613305Y-151578699D01*
X201613308Y-151578700D01*
X201613310Y-151578700D01*
X201686690Y-151578700D01*
X201686692Y-151578700D01*
X201757574Y-151559707D01*
X201821126Y-151523016D01*
X201868306Y-151475836D01*
X201912500Y-151457530D01*
X201956694Y-151475836D01*
X202003874Y-151523016D01*
X202067426Y-151559707D01*
X202109389Y-151570951D01*
X202138303Y-151578699D01*
X202138305Y-151578699D01*
X202138308Y-151578700D01*
X202138310Y-151578700D01*
X202211690Y-151578700D01*
X202211692Y-151578700D01*
X202282574Y-151559707D01*
X202346126Y-151523016D01*
X202393306Y-151475836D01*
X202437500Y-151457530D01*
X202481694Y-151475836D01*
X202528874Y-151523016D01*
X202592426Y-151559707D01*
X202634389Y-151570951D01*
X202663303Y-151578699D01*
X202663305Y-151578699D01*
X202663308Y-151578700D01*
X202663310Y-151578700D01*
X202736690Y-151578700D01*
X202736692Y-151578700D01*
X202807574Y-151559707D01*
X202871126Y-151523016D01*
X202923016Y-151471126D01*
X202959707Y-151407574D01*
X202978700Y-151336692D01*
X202978700Y-151263308D01*
X202959707Y-151192426D01*
X202923016Y-151128874D01*
X202875836Y-151081694D01*
X202867562Y-151061720D01*
X202857727Y-151042462D01*
X202858601Y-151040087D01*
X202857530Y-151037500D01*
X202872467Y-150996954D01*
X202874078Y-150995063D01*
X202908972Y-150960170D01*
X204697500Y-150960170D01*
X204697500Y-151039829D01*
X204718115Y-151116761D01*
X204718115Y-151116763D01*
X204757939Y-151185738D01*
X204757944Y-151185744D01*
X204814255Y-151242055D01*
X204814261Y-151242060D01*
X204883239Y-151281885D01*
X204927654Y-151293786D01*
X204960170Y-151302499D01*
X204960173Y-151302499D01*
X204960175Y-151302500D01*
X204960176Y-151302500D01*
X205039824Y-151302500D01*
X205039825Y-151302500D01*
X205116761Y-151281885D01*
X205185739Y-151242060D01*
X205242060Y-151185739D01*
X205270874Y-151135833D01*
X205308824Y-151106713D01*
X205356250Y-151112957D01*
X205379126Y-151135833D01*
X205407937Y-151185735D01*
X205407944Y-151185744D01*
X205464255Y-151242055D01*
X205464261Y-151242060D01*
X205533239Y-151281885D01*
X205577654Y-151293786D01*
X205610170Y-151302499D01*
X205610173Y-151302499D01*
X205610175Y-151302500D01*
X205610176Y-151302500D01*
X205689824Y-151302500D01*
X205689825Y-151302500D01*
X205766761Y-151281885D01*
X205835739Y-151242060D01*
X205892060Y-151185739D01*
X205931885Y-151116761D01*
X205952500Y-151039825D01*
X205952500Y-151009766D01*
X205970806Y-150965572D01*
X207326208Y-149610170D01*
X208771671Y-148164707D01*
X208802500Y-148090280D01*
X208802500Y-148009720D01*
X208802500Y-147017530D01*
X208820806Y-146973336D01*
X208823016Y-146971126D01*
X208859707Y-146907574D01*
X208878700Y-146836692D01*
X208878700Y-146763308D01*
X208878681Y-146763238D01*
X208869557Y-146729188D01*
X208859707Y-146692426D01*
X208823016Y-146628874D01*
X208771126Y-146576984D01*
X208771125Y-146576983D01*
X208707576Y-146540294D01*
X208707571Y-146540292D01*
X208636696Y-146521300D01*
X208636692Y-146521300D01*
X208563308Y-146521300D01*
X208563303Y-146521300D01*
X208492428Y-146540292D01*
X208492423Y-146540294D01*
X208428874Y-146576983D01*
X208376983Y-146628874D01*
X208340294Y-146692423D01*
X208340292Y-146692428D01*
X208321300Y-146763303D01*
X208321300Y-146836696D01*
X208340292Y-146907571D01*
X208340294Y-146907576D01*
X208376983Y-146971125D01*
X208379194Y-146973336D01*
X208397500Y-147017530D01*
X208397500Y-147940234D01*
X208379194Y-147984428D01*
X207809194Y-148554428D01*
X207765000Y-148572734D01*
X207720806Y-148554428D01*
X207702500Y-148510234D01*
X207702500Y-147517530D01*
X207720806Y-147473336D01*
X207721368Y-147472774D01*
X207723016Y-147471126D01*
X207759707Y-147407574D01*
X207778700Y-147336692D01*
X207778700Y-147263308D01*
X207759707Y-147192426D01*
X207723016Y-147128874D01*
X207671126Y-147076984D01*
X207671125Y-147076983D01*
X207607576Y-147040294D01*
X207607571Y-147040292D01*
X207536696Y-147021300D01*
X207536692Y-147021300D01*
X207515967Y-147021300D01*
X207471773Y-147002994D01*
X207453467Y-146958800D01*
X207471773Y-146914606D01*
X207763363Y-146623016D01*
X208023076Y-146363303D01*
X209071300Y-146363303D01*
X209071300Y-146436696D01*
X209090292Y-146507571D01*
X209090294Y-146507576D01*
X209123864Y-146565723D01*
X209126984Y-146571126D01*
X209178874Y-146623016D01*
X209214895Y-146643812D01*
X209244016Y-146681761D01*
X209237773Y-146729188D01*
X209218116Y-146763235D01*
X209218115Y-146763238D01*
X209197500Y-146840170D01*
X209197500Y-146919829D01*
X209218115Y-146996761D01*
X209218115Y-146996763D01*
X209257939Y-147065738D01*
X209257944Y-147065744D01*
X209314255Y-147122055D01*
X209314261Y-147122060D01*
X209380876Y-147160521D01*
X209383239Y-147161885D01*
X209427654Y-147173786D01*
X209460170Y-147182499D01*
X209460173Y-147182499D01*
X209460175Y-147182500D01*
X209460176Y-147182500D01*
X209539824Y-147182500D01*
X209539825Y-147182500D01*
X209616761Y-147161885D01*
X209619124Y-147160521D01*
X209638794Y-147149164D01*
X209685739Y-147122060D01*
X209742060Y-147065739D01*
X209781885Y-146996761D01*
X209802500Y-146919825D01*
X209802500Y-146840175D01*
X209781885Y-146763239D01*
X209781884Y-146763237D01*
X209781884Y-146763236D01*
X209742060Y-146694261D01*
X209742055Y-146694255D01*
X209685744Y-146637944D01*
X209685738Y-146637939D01*
X209626390Y-146603674D01*
X209597270Y-146565723D01*
X209603514Y-146518299D01*
X209609707Y-146507574D01*
X209628700Y-146436692D01*
X209628700Y-146363308D01*
X209609707Y-146292426D01*
X209573016Y-146228874D01*
X209521126Y-146176984D01*
X209521125Y-146176983D01*
X209457576Y-146140294D01*
X209457571Y-146140292D01*
X209386696Y-146121300D01*
X209386692Y-146121300D01*
X209313308Y-146121300D01*
X209313303Y-146121300D01*
X209242428Y-146140292D01*
X209242423Y-146140294D01*
X209178874Y-146176983D01*
X209126983Y-146228874D01*
X209090294Y-146292423D01*
X209090292Y-146292428D01*
X209071300Y-146363303D01*
X208023076Y-146363303D01*
X208062026Y-146324353D01*
X208086544Y-146265155D01*
X208086719Y-146264754D01*
X208087368Y-146264125D01*
X208099872Y-146245413D01*
X208113370Y-146231916D01*
X208150061Y-146168364D01*
X208169054Y-146097482D01*
X208169054Y-146024098D01*
X208150061Y-145953216D01*
X208113370Y-145889664D01*
X208061480Y-145837774D01*
X208061479Y-145837773D01*
X207997930Y-145801084D01*
X207997925Y-145801082D01*
X207927050Y-145782090D01*
X207927046Y-145782090D01*
X207853662Y-145782090D01*
X207853657Y-145782090D01*
X207782782Y-145801082D01*
X207782777Y-145801084D01*
X207719228Y-145837773D01*
X207667337Y-145889664D01*
X207630648Y-145953213D01*
X207630646Y-145953218D01*
X207611654Y-146024093D01*
X207611654Y-146097480D01*
X207611655Y-146097489D01*
X207624394Y-146145031D01*
X207618151Y-146192457D01*
X207608218Y-146205401D01*
X207170379Y-146643240D01*
X207126185Y-146661546D01*
X207081991Y-146643240D01*
X207065815Y-146615224D01*
X207059707Y-146592426D01*
X207023016Y-146528874D01*
X206971126Y-146476984D01*
X206971125Y-146476983D01*
X206907576Y-146440294D01*
X206907571Y-146440292D01*
X206836696Y-146421300D01*
X206836692Y-146421300D01*
X206763308Y-146421300D01*
X206763303Y-146421300D01*
X206692428Y-146440292D01*
X206692423Y-146440294D01*
X206628874Y-146476983D01*
X206576983Y-146528874D01*
X206540294Y-146592423D01*
X206540292Y-146592428D01*
X206521300Y-146663303D01*
X206521300Y-146736696D01*
X206540292Y-146807571D01*
X206540293Y-146807574D01*
X206576984Y-146871126D01*
X206628874Y-146923016D01*
X206692426Y-146959707D01*
X206708550Y-146964027D01*
X206715224Y-146965816D01*
X206753174Y-146994937D01*
X206759417Y-147042363D01*
X206743241Y-147070380D01*
X206547793Y-147265829D01*
X206490830Y-147322791D01*
X206490826Y-147322796D01*
X206460000Y-147397217D01*
X206460000Y-147652734D01*
X206441694Y-147696928D01*
X205721928Y-148416694D01*
X205677734Y-148435000D01*
X205647670Y-148435000D01*
X205570738Y-148455615D01*
X205570736Y-148455615D01*
X205501761Y-148495439D01*
X205501755Y-148495444D01*
X205445444Y-148551755D01*
X205445439Y-148551761D01*
X205405615Y-148620736D01*
X205405615Y-148620738D01*
X205385000Y-148697670D01*
X205385000Y-148777329D01*
X205405615Y-148854261D01*
X205405615Y-148854263D01*
X205445439Y-148923238D01*
X205445444Y-148923244D01*
X205501755Y-148979555D01*
X205501761Y-148979560D01*
X205570739Y-149019385D01*
X205615154Y-149031286D01*
X205647670Y-149039999D01*
X205647673Y-149039999D01*
X205647675Y-149040000D01*
X205647676Y-149040000D01*
X205727324Y-149040000D01*
X205727325Y-149040000D01*
X205804261Y-149019385D01*
X205873239Y-148979560D01*
X205929560Y-148923239D01*
X205969385Y-148854261D01*
X205990000Y-148777325D01*
X205990000Y-148747266D01*
X206008306Y-148703072D01*
X206409395Y-148301983D01*
X206834171Y-147877207D01*
X206865000Y-147802780D01*
X206865000Y-147722221D01*
X206865000Y-147547266D01*
X206883306Y-147503072D01*
X207114606Y-147271772D01*
X207158800Y-147253466D01*
X207202994Y-147271772D01*
X207221300Y-147315966D01*
X207221300Y-147336696D01*
X207240292Y-147407571D01*
X207240294Y-147407576D01*
X207276983Y-147471125D01*
X207279194Y-147473336D01*
X207297500Y-147517530D01*
X207297500Y-148390234D01*
X207279194Y-148434428D01*
X205034428Y-150679194D01*
X204990234Y-150697500D01*
X204960170Y-150697500D01*
X204883238Y-150718115D01*
X204883236Y-150718115D01*
X204814261Y-150757939D01*
X204814255Y-150757944D01*
X204757944Y-150814255D01*
X204757939Y-150814261D01*
X204718115Y-150883236D01*
X204718115Y-150883238D01*
X204697500Y-150960170D01*
X202908972Y-150960170D01*
X202923016Y-150946126D01*
X202959707Y-150882574D01*
X202978700Y-150811692D01*
X202978700Y-150738308D01*
X202959707Y-150667426D01*
X202923016Y-150603874D01*
X202871126Y-150551984D01*
X202871125Y-150551983D01*
X202807576Y-150515294D01*
X202807571Y-150515292D01*
X202736696Y-150496300D01*
X202736692Y-150496300D01*
X202663308Y-150496300D01*
X202663303Y-150496300D01*
X202592428Y-150515292D01*
X202592423Y-150515294D01*
X202528874Y-150551983D01*
X202481694Y-150599164D01*
X202437500Y-150617470D01*
X202393306Y-150599164D01*
X202346125Y-150551983D01*
X202282576Y-150515294D01*
X202282571Y-150515292D01*
X202211696Y-150496300D01*
X202211692Y-150496300D01*
X202138308Y-150496300D01*
X202138303Y-150496300D01*
X202067428Y-150515292D01*
X202067423Y-150515294D01*
X202003874Y-150551983D01*
X201956694Y-150599164D01*
X201912500Y-150617470D01*
X201868306Y-150599164D01*
X201821125Y-150551983D01*
X201757576Y-150515294D01*
X201757571Y-150515292D01*
X201686696Y-150496300D01*
X201686692Y-150496300D01*
X201613308Y-150496300D01*
X201613303Y-150496300D01*
X201542428Y-150515292D01*
X201542423Y-150515294D01*
X201478874Y-150551983D01*
X201426983Y-150603874D01*
X201390294Y-150667423D01*
X201390292Y-150667428D01*
X201371300Y-150738303D01*
X199248075Y-150738303D01*
X199765572Y-150220806D01*
X199809766Y-150202500D01*
X204848813Y-150202500D01*
X204893007Y-150220806D01*
X204893008Y-150220807D01*
X204914256Y-150242056D01*
X204914261Y-150242060D01*
X204976991Y-150278278D01*
X204983239Y-150281885D01*
X205027654Y-150293786D01*
X205060170Y-150302499D01*
X205060173Y-150302499D01*
X205060175Y-150302500D01*
X205060176Y-150302500D01*
X205139824Y-150302500D01*
X205139825Y-150302500D01*
X205216761Y-150281885D01*
X205223009Y-150278278D01*
X205238198Y-150269508D01*
X205285739Y-150242060D01*
X205342060Y-150185739D01*
X205381885Y-150116761D01*
X205402500Y-150039825D01*
X205402500Y-149960175D01*
X205402344Y-149959594D01*
X205394335Y-149929703D01*
X205381885Y-149883239D01*
X205381884Y-149883237D01*
X205381884Y-149883236D01*
X205342060Y-149814261D01*
X205342055Y-149814255D01*
X205285744Y-149757944D01*
X205285738Y-149757939D01*
X205216762Y-149718115D01*
X205139829Y-149697500D01*
X205139825Y-149697500D01*
X205060175Y-149697500D01*
X205060170Y-149697500D01*
X204983238Y-149718115D01*
X204983236Y-149718115D01*
X204914261Y-149757939D01*
X204914256Y-149757943D01*
X204893008Y-149779193D01*
X204848814Y-149797500D01*
X199659720Y-149797500D01*
X199601367Y-149821671D01*
X199601367Y-149821670D01*
X199585297Y-149828326D01*
X199585291Y-149828330D01*
X198934428Y-150479194D01*
X198890234Y-150497500D01*
X197461989Y-150497500D01*
X197417795Y-150479194D01*
X197399489Y-150435000D01*
X197417795Y-150390806D01*
X197423919Y-150384681D01*
X197423924Y-150384676D01*
X197463749Y-150315698D01*
X197484364Y-150238762D01*
X197484364Y-150159112D01*
X197463749Y-150082176D01*
X197463748Y-150082174D01*
X197463748Y-150082173D01*
X197423924Y-150013198D01*
X197423919Y-150013192D01*
X197388457Y-149977730D01*
X197370151Y-149933536D01*
X197388457Y-149889342D01*
X197442060Y-149835739D01*
X197481885Y-149766761D01*
X197502500Y-149689825D01*
X197502500Y-149610175D01*
X197485601Y-149547109D01*
X197485599Y-149547103D01*
X198337500Y-149547103D01*
X198337500Y-149620496D01*
X198356492Y-149691371D01*
X198356494Y-149691376D01*
X198379076Y-149730491D01*
X198393184Y-149754926D01*
X198445074Y-149806816D01*
X198508626Y-149843507D01*
X198552003Y-149855130D01*
X198579503Y-149862499D01*
X198579505Y-149862499D01*
X198579508Y-149862500D01*
X198579510Y-149862500D01*
X198652890Y-149862500D01*
X198652892Y-149862500D01*
X198723774Y-149843507D01*
X198787326Y-149806816D01*
X198839216Y-149754926D01*
X198875907Y-149691374D01*
X198894900Y-149620492D01*
X198894900Y-149547108D01*
X198875907Y-149476226D01*
X198839216Y-149412674D01*
X198787326Y-149360784D01*
X198787325Y-149360783D01*
X198723776Y-149324094D01*
X198723771Y-149324092D01*
X198652896Y-149305100D01*
X198652892Y-149305100D01*
X198579508Y-149305100D01*
X198579503Y-149305100D01*
X198508628Y-149324092D01*
X198508623Y-149324094D01*
X198445074Y-149360783D01*
X198393183Y-149412674D01*
X198356494Y-149476223D01*
X198356492Y-149476228D01*
X198337500Y-149547103D01*
X197485599Y-149547103D01*
X197481885Y-149533239D01*
X197481884Y-149533236D01*
X197442060Y-149464261D01*
X197442056Y-149464256D01*
X197433259Y-149455460D01*
X197414951Y-149411267D01*
X197433255Y-149367072D01*
X197442056Y-149358271D01*
X197442060Y-149358267D01*
X197481885Y-149289289D01*
X197502500Y-149212353D01*
X197502500Y-149132703D01*
X197499904Y-149123016D01*
X197486000Y-149071125D01*
X197481885Y-149055767D01*
X197481884Y-149055765D01*
X197481884Y-149055764D01*
X197442060Y-148986789D01*
X197442055Y-148986783D01*
X197385744Y-148930472D01*
X197385738Y-148930467D01*
X197316762Y-148890643D01*
X197239829Y-148870028D01*
X197239825Y-148870028D01*
X197160175Y-148870028D01*
X197160170Y-148870028D01*
X197083238Y-148890643D01*
X197083236Y-148890643D01*
X197014261Y-148930467D01*
X197014255Y-148930472D01*
X196957944Y-148986783D01*
X196957939Y-148986789D01*
X196918115Y-149055764D01*
X196918115Y-149055766D01*
X196897500Y-149132698D01*
X196897500Y-149212357D01*
X196918115Y-149289289D01*
X196918115Y-149289291D01*
X196957939Y-149358266D01*
X196957944Y-149358272D01*
X196966742Y-149367070D01*
X196985048Y-149411264D01*
X196966742Y-149455458D01*
X196957944Y-149464255D01*
X196957939Y-149464261D01*
X196918115Y-149533236D01*
X196918115Y-149533238D01*
X196897500Y-149610170D01*
X196897500Y-149689829D01*
X196918115Y-149766761D01*
X196918115Y-149766763D01*
X196957939Y-149835738D01*
X196957944Y-149835744D01*
X196993406Y-149871206D01*
X197011712Y-149915400D01*
X196993407Y-149959594D01*
X196939803Y-150013198D01*
X196899979Y-150082173D01*
X196899979Y-150082175D01*
X196879364Y-150159107D01*
X196879364Y-150238766D01*
X196899979Y-150315698D01*
X196899979Y-150315700D01*
X196939803Y-150384675D01*
X196939808Y-150384681D01*
X196969469Y-150414342D01*
X196987775Y-150458536D01*
X196969471Y-150502729D01*
X196957939Y-150514261D01*
X196918115Y-150583236D01*
X196918115Y-150583238D01*
X196897500Y-150660170D01*
X196897500Y-150690235D01*
X196879194Y-150734427D01*
X196855683Y-150757939D01*
X196841672Y-150771950D01*
X196797477Y-150790255D01*
X196753283Y-150771949D01*
X196735112Y-150731843D01*
X196734212Y-150718115D01*
X196705078Y-150273596D01*
X196704944Y-150269508D01*
X196704944Y-149730491D01*
X196705078Y-149726403D01*
X196717738Y-149533238D01*
X196740331Y-149188535D01*
X196740731Y-149184476D01*
X196796593Y-148760170D01*
X200097500Y-148760170D01*
X200097500Y-148839829D01*
X200118115Y-148916761D01*
X200118115Y-148916763D01*
X200157939Y-148985738D01*
X200157944Y-148985744D01*
X200214255Y-149042055D01*
X200214261Y-149042060D01*
X200283239Y-149081885D01*
X200327654Y-149093786D01*
X200360170Y-149102499D01*
X200360173Y-149102499D01*
X200360175Y-149102500D01*
X200360176Y-149102500D01*
X200439824Y-149102500D01*
X200439825Y-149102500D01*
X200516761Y-149081885D01*
X200585739Y-149042060D01*
X200614496Y-149013303D01*
X201371300Y-149013303D01*
X201371300Y-149086696D01*
X201390292Y-149157571D01*
X201390294Y-149157576D01*
X201421917Y-149212351D01*
X201426984Y-149221126D01*
X201478874Y-149273016D01*
X201542426Y-149309707D01*
X201585803Y-149321330D01*
X201613303Y-149328699D01*
X201613305Y-149328699D01*
X201613308Y-149328700D01*
X201613310Y-149328700D01*
X201686690Y-149328700D01*
X201686692Y-149328700D01*
X201757574Y-149309707D01*
X201821126Y-149273016D01*
X201868306Y-149225836D01*
X201912500Y-149207530D01*
X201956694Y-149225836D01*
X202003874Y-149273016D01*
X202067426Y-149309707D01*
X202110803Y-149321330D01*
X202138303Y-149328699D01*
X202138305Y-149328699D01*
X202138308Y-149328700D01*
X202138310Y-149328700D01*
X202211690Y-149328700D01*
X202211692Y-149328700D01*
X202282574Y-149309707D01*
X202346126Y-149273016D01*
X202393306Y-149225836D01*
X202437500Y-149207530D01*
X202481694Y-149225836D01*
X202528874Y-149273016D01*
X202592426Y-149309707D01*
X202635803Y-149321330D01*
X202663303Y-149328699D01*
X202663305Y-149328699D01*
X202663308Y-149328700D01*
X202663310Y-149328700D01*
X202736690Y-149328700D01*
X202736692Y-149328700D01*
X202807574Y-149309707D01*
X202871126Y-149273016D01*
X202923016Y-149221126D01*
X202959707Y-149157574D01*
X202978700Y-149086692D01*
X202978700Y-149013308D01*
X202959707Y-148942426D01*
X202923016Y-148878874D01*
X202875836Y-148831694D01*
X202857530Y-148787500D01*
X202875836Y-148743306D01*
X202897764Y-148721378D01*
X202923016Y-148696126D01*
X202959707Y-148632574D01*
X202978700Y-148561692D01*
X202978700Y-148488308D01*
X202959707Y-148417426D01*
X202923016Y-148353874D01*
X202907445Y-148338303D01*
X203721300Y-148338303D01*
X203721300Y-148411696D01*
X203740292Y-148482571D01*
X203740294Y-148482576D01*
X203776983Y-148546125D01*
X203824164Y-148593306D01*
X203842470Y-148637500D01*
X203824164Y-148681694D01*
X203776983Y-148728874D01*
X203740294Y-148792423D01*
X203740292Y-148792428D01*
X203721300Y-148863303D01*
X203721300Y-148936696D01*
X203740292Y-149007571D01*
X203740294Y-149007576D01*
X203768116Y-149055767D01*
X203776984Y-149071126D01*
X203828874Y-149123016D01*
X203892426Y-149159707D01*
X203935803Y-149171330D01*
X203963303Y-149178699D01*
X203963305Y-149178699D01*
X203963308Y-149178700D01*
X203963310Y-149178700D01*
X204036690Y-149178700D01*
X204036692Y-149178700D01*
X204107574Y-149159707D01*
X204171126Y-149123016D01*
X204223016Y-149071126D01*
X204259707Y-149007574D01*
X204278700Y-148936692D01*
X204278700Y-148863308D01*
X204276276Y-148854263D01*
X204268967Y-148826983D01*
X204259707Y-148792426D01*
X204223016Y-148728874D01*
X204175836Y-148681694D01*
X204157530Y-148637500D01*
X204175836Y-148593306D01*
X204196408Y-148572734D01*
X204223016Y-148546126D01*
X204259707Y-148482574D01*
X204278700Y-148411692D01*
X204278700Y-148338308D01*
X204259707Y-148267426D01*
X204223016Y-148203874D01*
X204171126Y-148151984D01*
X204171125Y-148151983D01*
X204107576Y-148115294D01*
X204107571Y-148115292D01*
X204036696Y-148096300D01*
X204036692Y-148096300D01*
X203963308Y-148096300D01*
X203963303Y-148096300D01*
X203892428Y-148115292D01*
X203892423Y-148115294D01*
X203828874Y-148151983D01*
X203776983Y-148203874D01*
X203740294Y-148267423D01*
X203740292Y-148267428D01*
X203721300Y-148338303D01*
X202907445Y-148338303D01*
X202871126Y-148301984D01*
X202871125Y-148301983D01*
X202807576Y-148265294D01*
X202807571Y-148265292D01*
X202736696Y-148246300D01*
X202736692Y-148246300D01*
X202663308Y-148246300D01*
X202663303Y-148246300D01*
X202592428Y-148265292D01*
X202592423Y-148265294D01*
X202528874Y-148301983D01*
X202481694Y-148349164D01*
X202437500Y-148367470D01*
X202393306Y-148349164D01*
X202346125Y-148301983D01*
X202282576Y-148265294D01*
X202282571Y-148265292D01*
X202211696Y-148246300D01*
X202211692Y-148246300D01*
X202138308Y-148246300D01*
X202138303Y-148246300D01*
X202067428Y-148265292D01*
X202067423Y-148265294D01*
X202003874Y-148301983D01*
X201951983Y-148353874D01*
X201915294Y-148417423D01*
X201915292Y-148417428D01*
X201896300Y-148488303D01*
X201896300Y-148561696D01*
X201915292Y-148632571D01*
X201915294Y-148632576D01*
X201951983Y-148696125D01*
X201999164Y-148743306D01*
X202017470Y-148787500D01*
X201999164Y-148831694D01*
X201956694Y-148874164D01*
X201912500Y-148892470D01*
X201868306Y-148874164D01*
X201821125Y-148826983D01*
X201757576Y-148790294D01*
X201757571Y-148790292D01*
X201686696Y-148771300D01*
X201686692Y-148771300D01*
X201613308Y-148771300D01*
X201613303Y-148771300D01*
X201542428Y-148790292D01*
X201542423Y-148790294D01*
X201478874Y-148826983D01*
X201426983Y-148878874D01*
X201390294Y-148942423D01*
X201390292Y-148942428D01*
X201371300Y-149013303D01*
X200614496Y-149013303D01*
X200642060Y-148985739D01*
X200681885Y-148916761D01*
X200702500Y-148839825D01*
X200702500Y-148760175D01*
X200681885Y-148683239D01*
X200681884Y-148683237D01*
X200681884Y-148683236D01*
X200642060Y-148614261D01*
X200642055Y-148614255D01*
X200585744Y-148557944D01*
X200585738Y-148557939D01*
X200516762Y-148518115D01*
X200439829Y-148497500D01*
X200439825Y-148497500D01*
X200360175Y-148497500D01*
X200360170Y-148497500D01*
X200283238Y-148518115D01*
X200283236Y-148518115D01*
X200214261Y-148557939D01*
X200214255Y-148557944D01*
X200157944Y-148614255D01*
X200157939Y-148614261D01*
X200118115Y-148683236D01*
X200118115Y-148683238D01*
X200097500Y-148760170D01*
X196796593Y-148760170D01*
X196811089Y-148650061D01*
X196811748Y-148646063D01*
X196916914Y-148117360D01*
X196917832Y-148113423D01*
X197057346Y-147592748D01*
X197058525Y-147588861D01*
X197128226Y-147383530D01*
X200101073Y-147383530D01*
X200101073Y-147456923D01*
X200120065Y-147527798D01*
X200120067Y-147527803D01*
X200155310Y-147588848D01*
X200156757Y-147591353D01*
X200208647Y-147643243D01*
X200272199Y-147679934D01*
X200315576Y-147691557D01*
X200343076Y-147698926D01*
X200343078Y-147698926D01*
X200343081Y-147698927D01*
X200343083Y-147698927D01*
X200416463Y-147698927D01*
X200416465Y-147698927D01*
X200487347Y-147679934D01*
X200550899Y-147643243D01*
X200602789Y-147591353D01*
X200639480Y-147527801D01*
X200648793Y-147493044D01*
X202374333Y-147493044D01*
X202374333Y-147566437D01*
X202393325Y-147637312D01*
X202393327Y-147637317D01*
X202427742Y-147696928D01*
X202430017Y-147700867D01*
X202481907Y-147752757D01*
X202545459Y-147789448D01*
X202588836Y-147801071D01*
X202616336Y-147808440D01*
X202616338Y-147808440D01*
X202616341Y-147808441D01*
X202616343Y-147808441D01*
X202689723Y-147808441D01*
X202689725Y-147808441D01*
X202760607Y-147789448D01*
X202824159Y-147752757D01*
X202876049Y-147700867D01*
X202912740Y-147637315D01*
X202931733Y-147566433D01*
X202931733Y-147493049D01*
X202928914Y-147482530D01*
X202915529Y-147432576D01*
X202912740Y-147422167D01*
X202876049Y-147358615D01*
X202824159Y-147306725D01*
X202824158Y-147306724D01*
X202792251Y-147288303D01*
X203446300Y-147288303D01*
X203446300Y-147361696D01*
X203465292Y-147432571D01*
X203465294Y-147432576D01*
X203500207Y-147493049D01*
X203501984Y-147496126D01*
X203553874Y-147548016D01*
X203617426Y-147584707D01*
X203660803Y-147596330D01*
X203688303Y-147603699D01*
X203688305Y-147603699D01*
X203688308Y-147603700D01*
X203688310Y-147603700D01*
X203761690Y-147603700D01*
X203761692Y-147603700D01*
X203832574Y-147584707D01*
X203896126Y-147548016D01*
X203943306Y-147500836D01*
X203987500Y-147482530D01*
X204031694Y-147500836D01*
X204078874Y-147548016D01*
X204142426Y-147584707D01*
X204185803Y-147596330D01*
X204213303Y-147603699D01*
X204213305Y-147603699D01*
X204213308Y-147603700D01*
X204213310Y-147603700D01*
X204286690Y-147603700D01*
X204286692Y-147603700D01*
X204357574Y-147584707D01*
X204421126Y-147548016D01*
X204468306Y-147500836D01*
X204512500Y-147482530D01*
X204556694Y-147500836D01*
X204603874Y-147548016D01*
X204667426Y-147584707D01*
X204710803Y-147596330D01*
X204738303Y-147603699D01*
X204738305Y-147603699D01*
X204738308Y-147603700D01*
X204738310Y-147603700D01*
X204811690Y-147603700D01*
X204811692Y-147603700D01*
X204882574Y-147584707D01*
X204946126Y-147548016D01*
X204998016Y-147496126D01*
X205034707Y-147432574D01*
X205053700Y-147361692D01*
X205053700Y-147288308D01*
X205048803Y-147270034D01*
X205043194Y-147249101D01*
X205034707Y-147217426D01*
X204998016Y-147153874D01*
X204946126Y-147101984D01*
X204946125Y-147101983D01*
X204882576Y-147065294D01*
X204882571Y-147065292D01*
X204811696Y-147046300D01*
X204811692Y-147046300D01*
X204738308Y-147046300D01*
X204738303Y-147046300D01*
X204667428Y-147065292D01*
X204667423Y-147065294D01*
X204603874Y-147101983D01*
X204556694Y-147149164D01*
X204512500Y-147167470D01*
X204468306Y-147149164D01*
X204421125Y-147101983D01*
X204357576Y-147065294D01*
X204357571Y-147065292D01*
X204286696Y-147046300D01*
X204286692Y-147046300D01*
X204213308Y-147046300D01*
X204213303Y-147046300D01*
X204142428Y-147065292D01*
X204142423Y-147065294D01*
X204078874Y-147101983D01*
X204031694Y-147149164D01*
X203987500Y-147167470D01*
X203943306Y-147149164D01*
X203896125Y-147101983D01*
X203832576Y-147065294D01*
X203832571Y-147065292D01*
X203761696Y-147046300D01*
X203761692Y-147046300D01*
X203688308Y-147046300D01*
X203688303Y-147046300D01*
X203617428Y-147065292D01*
X203617423Y-147065294D01*
X203553874Y-147101983D01*
X203501983Y-147153874D01*
X203465294Y-147217423D01*
X203465292Y-147217428D01*
X203446300Y-147288303D01*
X202792251Y-147288303D01*
X202760609Y-147270035D01*
X202760604Y-147270033D01*
X202689729Y-147251041D01*
X202689725Y-147251041D01*
X202616341Y-147251041D01*
X202616336Y-147251041D01*
X202545461Y-147270033D01*
X202545456Y-147270035D01*
X202481907Y-147306724D01*
X202430016Y-147358615D01*
X202393327Y-147422164D01*
X202393325Y-147422169D01*
X202374333Y-147493044D01*
X200648793Y-147493044D01*
X200649169Y-147491642D01*
X200654225Y-147472775D01*
X200654225Y-147472774D01*
X200658471Y-147456926D01*
X200658473Y-147456917D01*
X200658473Y-147383536D01*
X200658472Y-147383530D01*
X200645921Y-147336690D01*
X200639480Y-147312653D01*
X200602789Y-147249101D01*
X200550899Y-147197211D01*
X200550898Y-147197210D01*
X200487349Y-147160521D01*
X200487344Y-147160519D01*
X200416469Y-147141527D01*
X200416465Y-147141527D01*
X200343081Y-147141527D01*
X200343076Y-147141527D01*
X200272201Y-147160519D01*
X200272196Y-147160521D01*
X200208647Y-147197210D01*
X200156756Y-147249101D01*
X200120067Y-147312650D01*
X200120065Y-147312655D01*
X200101073Y-147383530D01*
X197128226Y-147383530D01*
X197231797Y-147078421D01*
X197233227Y-147074620D01*
X197439503Y-146576626D01*
X197441186Y-146572912D01*
X197442067Y-146571126D01*
X197486884Y-146480245D01*
X200968824Y-146480245D01*
X200968824Y-146553638D01*
X200987816Y-146624513D01*
X200987818Y-146624518D01*
X201020866Y-146681761D01*
X201024508Y-146688068D01*
X201076398Y-146739958D01*
X201139950Y-146776649D01*
X201183327Y-146788272D01*
X201210827Y-146795641D01*
X201210829Y-146795641D01*
X201210832Y-146795642D01*
X201210834Y-146795642D01*
X201284214Y-146795642D01*
X201284216Y-146795642D01*
X201355098Y-146776649D01*
X201418650Y-146739958D01*
X201470540Y-146688068D01*
X201507231Y-146624516D01*
X201526224Y-146553634D01*
X201526224Y-146480250D01*
X201507231Y-146409368D01*
X201470540Y-146345816D01*
X201418650Y-146293926D01*
X201418649Y-146293925D01*
X201355100Y-146257236D01*
X201355095Y-146257234D01*
X201284220Y-146238242D01*
X201284216Y-146238242D01*
X201210832Y-146238242D01*
X201210827Y-146238242D01*
X201139952Y-146257234D01*
X201139947Y-146257236D01*
X201076398Y-146293925D01*
X201024507Y-146345816D01*
X200987818Y-146409365D01*
X200987816Y-146409370D01*
X200968824Y-146480245D01*
X197486884Y-146480245D01*
X197679596Y-146089463D01*
X197681508Y-146085884D01*
X197810016Y-145863303D01*
X206921300Y-145863303D01*
X206921300Y-145936696D01*
X206940292Y-146007571D01*
X206940294Y-146007576D01*
X206949833Y-146024099D01*
X206976984Y-146071126D01*
X207028874Y-146123016D01*
X207092426Y-146159707D01*
X207124734Y-146168364D01*
X207163303Y-146178699D01*
X207163305Y-146178699D01*
X207163308Y-146178700D01*
X207163310Y-146178700D01*
X207236690Y-146178700D01*
X207236692Y-146178700D01*
X207307574Y-146159707D01*
X207371126Y-146123016D01*
X207423016Y-146071126D01*
X207459707Y-146007574D01*
X207478700Y-145936692D01*
X207478700Y-145863308D01*
X207459707Y-145792426D01*
X207423016Y-145728874D01*
X207371126Y-145676984D01*
X207371125Y-145676983D01*
X207307576Y-145640294D01*
X207307571Y-145640292D01*
X207236696Y-145621300D01*
X207236692Y-145621300D01*
X207163308Y-145621300D01*
X207163303Y-145621300D01*
X207092428Y-145640292D01*
X207092423Y-145640294D01*
X207028874Y-145676983D01*
X206976983Y-145728874D01*
X206940294Y-145792423D01*
X206940292Y-145792428D01*
X206921300Y-145863303D01*
X197810016Y-145863303D01*
X197951028Y-145619063D01*
X197953185Y-145615596D01*
X197958547Y-145607571D01*
X198054944Y-145463303D01*
X205221300Y-145463303D01*
X205221300Y-145536696D01*
X205240292Y-145607571D01*
X205240294Y-145607576D01*
X205259183Y-145640294D01*
X205276984Y-145671126D01*
X205328874Y-145723016D01*
X205392426Y-145759707D01*
X205435803Y-145771330D01*
X205463303Y-145778699D01*
X205463305Y-145778699D01*
X205463308Y-145778700D01*
X205463310Y-145778700D01*
X205536690Y-145778700D01*
X205536692Y-145778700D01*
X205607574Y-145759707D01*
X205671126Y-145723016D01*
X205723016Y-145671126D01*
X205759707Y-145607574D01*
X205778700Y-145536692D01*
X205778700Y-145463308D01*
X205778699Y-145463303D01*
X206121300Y-145463303D01*
X206121300Y-145536696D01*
X206140292Y-145607571D01*
X206140294Y-145607576D01*
X206159183Y-145640294D01*
X206176984Y-145671126D01*
X206228874Y-145723016D01*
X206292426Y-145759707D01*
X206335803Y-145771330D01*
X206363303Y-145778699D01*
X206363305Y-145778699D01*
X206363308Y-145778700D01*
X206363310Y-145778700D01*
X206436690Y-145778700D01*
X206436692Y-145778700D01*
X206507574Y-145759707D01*
X206571126Y-145723016D01*
X206623016Y-145671126D01*
X206659707Y-145607574D01*
X206678700Y-145536692D01*
X206678700Y-145463308D01*
X206659707Y-145392426D01*
X206623016Y-145328874D01*
X206571126Y-145276984D01*
X206571125Y-145276983D01*
X206507576Y-145240294D01*
X206507571Y-145240292D01*
X206436696Y-145221300D01*
X206436692Y-145221300D01*
X206363308Y-145221300D01*
X206363303Y-145221300D01*
X206292428Y-145240292D01*
X206292423Y-145240294D01*
X206228874Y-145276983D01*
X206176983Y-145328874D01*
X206140294Y-145392423D01*
X206140292Y-145392428D01*
X206121300Y-145463303D01*
X205778699Y-145463303D01*
X205759707Y-145392426D01*
X205723016Y-145328874D01*
X205671126Y-145276984D01*
X205671125Y-145276983D01*
X205607576Y-145240294D01*
X205607571Y-145240292D01*
X205536696Y-145221300D01*
X205536692Y-145221300D01*
X205463308Y-145221300D01*
X205463303Y-145221300D01*
X205392428Y-145240292D01*
X205392423Y-145240294D01*
X205328874Y-145276983D01*
X205276983Y-145328874D01*
X205240294Y-145392423D01*
X205240292Y-145392428D01*
X205221300Y-145463303D01*
X198054944Y-145463303D01*
X198252648Y-145167418D01*
X198255008Y-145164124D01*
X198583171Y-144736453D01*
X198585743Y-144733321D01*
X198676452Y-144629887D01*
X199921300Y-144629887D01*
X199921300Y-144703280D01*
X199940292Y-144774155D01*
X199940294Y-144774160D01*
X199971355Y-144827961D01*
X199976984Y-144837710D01*
X200028874Y-144889600D01*
X200092426Y-144926291D01*
X200131235Y-144936690D01*
X200163303Y-144945283D01*
X200163305Y-144945283D01*
X200163308Y-144945284D01*
X200163310Y-144945284D01*
X200236690Y-144945284D01*
X200236692Y-144945284D01*
X200307574Y-144926291D01*
X200371126Y-144889600D01*
X200397423Y-144863303D01*
X204821300Y-144863303D01*
X204821300Y-144936696D01*
X204840292Y-145007571D01*
X204840293Y-145007574D01*
X204876984Y-145071126D01*
X204928874Y-145123016D01*
X204992426Y-145159707D01*
X205035803Y-145171330D01*
X205063303Y-145178699D01*
X205063305Y-145178699D01*
X205063308Y-145178700D01*
X205063310Y-145178700D01*
X205136690Y-145178700D01*
X205136692Y-145178700D01*
X205207574Y-145159707D01*
X205271126Y-145123016D01*
X205323016Y-145071126D01*
X205359707Y-145007574D01*
X205378700Y-144936692D01*
X205378700Y-144863308D01*
X205359707Y-144792426D01*
X205323016Y-144728874D01*
X205320806Y-144726664D01*
X205302500Y-144682470D01*
X205302500Y-144409766D01*
X205320806Y-144365572D01*
X205523075Y-144163303D01*
X205821300Y-144163303D01*
X205821300Y-144236696D01*
X205840292Y-144307571D01*
X205840294Y-144307576D01*
X205852121Y-144328062D01*
X205876984Y-144371126D01*
X205928874Y-144423016D01*
X205992426Y-144459707D01*
X206035803Y-144471330D01*
X206063303Y-144478699D01*
X206063305Y-144478699D01*
X206063308Y-144478700D01*
X206063310Y-144478700D01*
X206136690Y-144478700D01*
X206136692Y-144478700D01*
X206207574Y-144459707D01*
X206271126Y-144423016D01*
X206323016Y-144371126D01*
X206359707Y-144307574D01*
X206378700Y-144236692D01*
X206378700Y-144163308D01*
X206359707Y-144092426D01*
X206323016Y-144028874D01*
X206271126Y-143976984D01*
X206271125Y-143976983D01*
X206207576Y-143940294D01*
X206207571Y-143940292D01*
X206136696Y-143921300D01*
X206136692Y-143921300D01*
X206063308Y-143921300D01*
X206063303Y-143921300D01*
X205992428Y-143940292D01*
X205992423Y-143940294D01*
X205928874Y-143976983D01*
X205876983Y-144028874D01*
X205840294Y-144092423D01*
X205840292Y-144092428D01*
X205821300Y-144163303D01*
X205523075Y-144163303D01*
X205571361Y-144115017D01*
X205571671Y-144114707D01*
X205576448Y-144103176D01*
X205602499Y-144040282D01*
X205602500Y-144040279D01*
X205602500Y-143672670D01*
X206310002Y-143672670D01*
X206310002Y-143752329D01*
X206330617Y-143829261D01*
X206330617Y-143829263D01*
X206370441Y-143898238D01*
X206370446Y-143898244D01*
X206426757Y-143954555D01*
X206426763Y-143954560D01*
X206495278Y-143994118D01*
X206495741Y-143994385D01*
X206526023Y-144002499D01*
X206572672Y-144014999D01*
X206572675Y-144014999D01*
X206572677Y-144015000D01*
X206572678Y-144015000D01*
X206652326Y-144015000D01*
X206652327Y-144015000D01*
X206729263Y-143994385D01*
X206729269Y-143994381D01*
X206733052Y-143992816D01*
X206733591Y-143994118D01*
X206776006Y-143988530D01*
X206813960Y-144017646D01*
X206820209Y-144065071D01*
X206820207Y-144065078D01*
X206810001Y-144103168D01*
X206810000Y-144103176D01*
X206810000Y-144182829D01*
X206830615Y-144259761D01*
X206830615Y-144259763D01*
X206870439Y-144328738D01*
X206870444Y-144328744D01*
X206926755Y-144385055D01*
X206926761Y-144385060D01*
X206964548Y-144406877D01*
X206995739Y-144424885D01*
X207040154Y-144436786D01*
X207072670Y-144445499D01*
X207072673Y-144445499D01*
X207072675Y-144445500D01*
X207072676Y-144445500D01*
X207152324Y-144445500D01*
X207152325Y-144445500D01*
X207229261Y-144424885D01*
X207298239Y-144385060D01*
X207354560Y-144328739D01*
X207394385Y-144259761D01*
X207415000Y-144182825D01*
X207415000Y-144103175D01*
X207412120Y-144092428D01*
X207404790Y-144065071D01*
X207394385Y-144026239D01*
X207394384Y-144026237D01*
X207394384Y-144026236D01*
X207367879Y-143980330D01*
X207367878Y-143980328D01*
X207354562Y-143957264D01*
X207354555Y-143957255D01*
X207350470Y-143953170D01*
X209397500Y-143953170D01*
X209397500Y-144032829D01*
X209418115Y-144109761D01*
X209418115Y-144109763D01*
X209457939Y-144178738D01*
X209457944Y-144178744D01*
X209514255Y-144235055D01*
X209514261Y-144235060D01*
X209556967Y-144259717D01*
X209583239Y-144274885D01*
X209627654Y-144286786D01*
X209660170Y-144295499D01*
X209660173Y-144295499D01*
X209660175Y-144295500D01*
X209660176Y-144295500D01*
X209739824Y-144295500D01*
X209739825Y-144295500D01*
X209816761Y-144274885D01*
X209885739Y-144235060D01*
X209942060Y-144178739D01*
X209973467Y-144124340D01*
X209981884Y-144109763D01*
X209981884Y-144109762D01*
X209981885Y-144109761D01*
X210002500Y-144032825D01*
X210002500Y-143953175D01*
X209999520Y-143942055D01*
X209993827Y-143920806D01*
X209981885Y-143876239D01*
X209981884Y-143876237D01*
X209981884Y-143876236D01*
X209942060Y-143807261D01*
X209942055Y-143807255D01*
X209885744Y-143750944D01*
X209885738Y-143750939D01*
X209816762Y-143711115D01*
X209739829Y-143690500D01*
X209739825Y-143690500D01*
X209660175Y-143690500D01*
X209660170Y-143690500D01*
X209583238Y-143711115D01*
X209583236Y-143711115D01*
X209514261Y-143750939D01*
X209514255Y-143750944D01*
X209457944Y-143807255D01*
X209457939Y-143807261D01*
X209418115Y-143876236D01*
X209418115Y-143876238D01*
X209397500Y-143953170D01*
X207350470Y-143953170D01*
X207298244Y-143900944D01*
X207298238Y-143900939D01*
X207229262Y-143861115D01*
X207152329Y-143840500D01*
X207152325Y-143840500D01*
X207072675Y-143840500D01*
X207072670Y-143840500D01*
X206995738Y-143861115D01*
X206991950Y-143862684D01*
X206991413Y-143861387D01*
X206948970Y-143866963D01*
X206911028Y-143837831D01*
X206904794Y-143790420D01*
X206915001Y-143752328D01*
X206915002Y-143752323D01*
X206915002Y-143672676D01*
X206915001Y-143672670D01*
X206908466Y-143648283D01*
X206894387Y-143595739D01*
X206894386Y-143595737D01*
X206894386Y-143595736D01*
X206854562Y-143526761D01*
X206854557Y-143526755D01*
X206798246Y-143470444D01*
X206798240Y-143470439D01*
X206729264Y-143430615D01*
X206652331Y-143410000D01*
X206652327Y-143410000D01*
X206572677Y-143410000D01*
X206572672Y-143410000D01*
X206495740Y-143430615D01*
X206495738Y-143430615D01*
X206426763Y-143470439D01*
X206426757Y-143470444D01*
X206370446Y-143526755D01*
X206370441Y-143526761D01*
X206330617Y-143595736D01*
X206330617Y-143595738D01*
X206310002Y-143672670D01*
X205602500Y-143672670D01*
X205602500Y-143560459D01*
X205620806Y-143516265D01*
X205648824Y-143500089D01*
X205688233Y-143489529D01*
X205716761Y-143481885D01*
X205785739Y-143442060D01*
X205842060Y-143385739D01*
X205881885Y-143316761D01*
X205902500Y-143239825D01*
X205902500Y-143160175D01*
X205898087Y-143143707D01*
X205885585Y-143097049D01*
X205881885Y-143083239D01*
X205881884Y-143083237D01*
X205881884Y-143083236D01*
X205842060Y-143014261D01*
X205842055Y-143014255D01*
X205785744Y-142957944D01*
X205785738Y-142957939D01*
X205716762Y-142918115D01*
X205639829Y-142897500D01*
X205639825Y-142897500D01*
X205560175Y-142897500D01*
X205560170Y-142897500D01*
X205483238Y-142918115D01*
X205483236Y-142918115D01*
X205414261Y-142957939D01*
X205414255Y-142957944D01*
X205357944Y-143014255D01*
X205357939Y-143014261D01*
X205318115Y-143083236D01*
X205318115Y-143083238D01*
X205297500Y-143160170D01*
X205297500Y-143190234D01*
X205279194Y-143234428D01*
X205228330Y-143285291D01*
X205228326Y-143285296D01*
X205197500Y-143359717D01*
X205197500Y-143890234D01*
X205179194Y-143934428D01*
X204928330Y-144185291D01*
X204928326Y-144185296D01*
X204897500Y-144259717D01*
X204897500Y-144682470D01*
X204879194Y-144726664D01*
X204876983Y-144728874D01*
X204840294Y-144792423D01*
X204840292Y-144792428D01*
X204821300Y-144863303D01*
X200397423Y-144863303D01*
X200423016Y-144837710D01*
X200459707Y-144774158D01*
X200478700Y-144703276D01*
X200478700Y-144629892D01*
X200459707Y-144559010D01*
X200423016Y-144495458D01*
X200371126Y-144443568D01*
X200371125Y-144443567D01*
X200307576Y-144406878D01*
X200307571Y-144406876D01*
X200236696Y-144387884D01*
X200236692Y-144387884D01*
X200163308Y-144387884D01*
X200163303Y-144387884D01*
X200092428Y-144406876D01*
X200092423Y-144406878D01*
X200028874Y-144443567D01*
X199976983Y-144495458D01*
X199940294Y-144559007D01*
X199940292Y-144559012D01*
X199921300Y-144629887D01*
X198676452Y-144629887D01*
X198941160Y-144328045D01*
X198943926Y-144325092D01*
X199325092Y-143943926D01*
X199328045Y-143941160D01*
X199733321Y-143585743D01*
X199736453Y-143583171D01*
X200164124Y-143255008D01*
X200167418Y-143252648D01*
X200198281Y-143232026D01*
X201327469Y-143232026D01*
X201327469Y-143305419D01*
X201346461Y-143376294D01*
X201346463Y-143376299D01*
X201377821Y-143430615D01*
X201383153Y-143439849D01*
X201435043Y-143491739D01*
X201498595Y-143528430D01*
X201541972Y-143540053D01*
X201569472Y-143547422D01*
X201569474Y-143547422D01*
X201569477Y-143547423D01*
X201569479Y-143547423D01*
X201642859Y-143547423D01*
X201642861Y-143547423D01*
X201713743Y-143528430D01*
X201777295Y-143491739D01*
X201779505Y-143489529D01*
X201823699Y-143471223D01*
X201831929Y-143471223D01*
X201876122Y-143489528D01*
X202258265Y-143871672D01*
X202292228Y-143885739D01*
X202310893Y-143893470D01*
X202310895Y-143893471D01*
X202332691Y-143902500D01*
X202332692Y-143902500D01*
X202332693Y-143902500D01*
X202413252Y-143902500D01*
X204348813Y-143902500D01*
X204393007Y-143920806D01*
X204393008Y-143920807D01*
X204414256Y-143942056D01*
X204414261Y-143942060D01*
X204480545Y-143980330D01*
X204483239Y-143981885D01*
X204524034Y-143992816D01*
X204560170Y-144002499D01*
X204560173Y-144002499D01*
X204560175Y-144002500D01*
X204560176Y-144002500D01*
X204639824Y-144002500D01*
X204639825Y-144002500D01*
X204716761Y-143981885D01*
X204719455Y-143980330D01*
X204759410Y-143957261D01*
X204785739Y-143942060D01*
X204842060Y-143885739D01*
X204881885Y-143816761D01*
X204902500Y-143739825D01*
X204902500Y-143660175D01*
X204881885Y-143583239D01*
X204881884Y-143583237D01*
X204881884Y-143583236D01*
X204842060Y-143514261D01*
X204842055Y-143514255D01*
X204785744Y-143457944D01*
X204785738Y-143457939D01*
X204716762Y-143418115D01*
X204639829Y-143397500D01*
X204639825Y-143397500D01*
X204560175Y-143397500D01*
X204560170Y-143397500D01*
X204483238Y-143418115D01*
X204483236Y-143418115D01*
X204414261Y-143457939D01*
X204414256Y-143457943D01*
X204393008Y-143479193D01*
X204348814Y-143497500D01*
X204215996Y-143497500D01*
X204171802Y-143479194D01*
X204153496Y-143435000D01*
X204158254Y-143411081D01*
X204159702Y-143407581D01*
X204159707Y-143407574D01*
X204178700Y-143336692D01*
X204178700Y-143263308D01*
X204176724Y-143255935D01*
X204166056Y-143216121D01*
X204159707Y-143192426D01*
X204123016Y-143128874D01*
X204071126Y-143076984D01*
X204071125Y-143076983D01*
X204007576Y-143040294D01*
X204007571Y-143040292D01*
X203936696Y-143021300D01*
X203936692Y-143021300D01*
X203863308Y-143021300D01*
X203863305Y-143021300D01*
X203857372Y-143022890D01*
X203809946Y-143016642D01*
X203780828Y-142978690D01*
X203778700Y-142962518D01*
X203778700Y-142935890D01*
X203778699Y-142935884D01*
X203769880Y-142902974D01*
X203759707Y-142865007D01*
X203723016Y-142801455D01*
X203671126Y-142749565D01*
X203671125Y-142749564D01*
X203607576Y-142712875D01*
X203607571Y-142712873D01*
X203536696Y-142693881D01*
X203536692Y-142693881D01*
X203463308Y-142693881D01*
X203463305Y-142693881D01*
X203457372Y-142695471D01*
X203409946Y-142689223D01*
X203380828Y-142651271D01*
X203378700Y-142635099D01*
X203378700Y-142619593D01*
X203378699Y-142619587D01*
X203361044Y-142553700D01*
X203359707Y-142548710D01*
X203323016Y-142485158D01*
X203271126Y-142433268D01*
X203271125Y-142433267D01*
X203207576Y-142396578D01*
X203207571Y-142396576D01*
X203136696Y-142377584D01*
X203136692Y-142377584D01*
X203063308Y-142377584D01*
X203063303Y-142377584D01*
X202992428Y-142396576D01*
X202992423Y-142396578D01*
X202928874Y-142433267D01*
X202876983Y-142485158D01*
X202840294Y-142548707D01*
X202840292Y-142548712D01*
X202821300Y-142619587D01*
X202821300Y-142692980D01*
X202830119Y-142725890D01*
X202840293Y-142763858D01*
X202876984Y-142827410D01*
X202928874Y-142879300D01*
X202992426Y-142915991D01*
X203035803Y-142927614D01*
X203063303Y-142934983D01*
X203063305Y-142934983D01*
X203063308Y-142934984D01*
X203063310Y-142934984D01*
X203136690Y-142934984D01*
X203136692Y-142934984D01*
X203142622Y-142933395D01*
X203190049Y-142939638D01*
X203219170Y-142977587D01*
X203221300Y-142993765D01*
X203221300Y-143009277D01*
X203240292Y-143080152D01*
X203240294Y-143080157D01*
X203250046Y-143097049D01*
X203276984Y-143143707D01*
X203328874Y-143195597D01*
X203392426Y-143232288D01*
X203435803Y-143243911D01*
X203463303Y-143251280D01*
X203463305Y-143251280D01*
X203463308Y-143251281D01*
X203463310Y-143251281D01*
X203536690Y-143251281D01*
X203536692Y-143251281D01*
X203542622Y-143249692D01*
X203590049Y-143255935D01*
X203619170Y-143293884D01*
X203621300Y-143310062D01*
X203621300Y-143336696D01*
X203640292Y-143407571D01*
X203641746Y-143411081D01*
X203641747Y-143458917D01*
X203607923Y-143492742D01*
X203584004Y-143497500D01*
X202482739Y-143497500D01*
X202438545Y-143479194D01*
X202056403Y-143097053D01*
X202056398Y-143097049D01*
X201981977Y-143066223D01*
X201981975Y-143066223D01*
X201823699Y-143066223D01*
X201779505Y-143047917D01*
X201777294Y-143045706D01*
X201713745Y-143009017D01*
X201713740Y-143009015D01*
X201642865Y-142990023D01*
X201642861Y-142990023D01*
X201569477Y-142990023D01*
X201569472Y-142990023D01*
X201498597Y-143009015D01*
X201498592Y-143009017D01*
X201435043Y-143045706D01*
X201383152Y-143097597D01*
X201346463Y-143161146D01*
X201346461Y-143161151D01*
X201327469Y-143232026D01*
X200198281Y-143232026D01*
X200615601Y-142953181D01*
X200619069Y-142951025D01*
X200645284Y-142935890D01*
X201085884Y-142681508D01*
X201089463Y-142679596D01*
X201572923Y-142441180D01*
X201576626Y-142439503D01*
X202062365Y-142238303D01*
X204596300Y-142238303D01*
X204596300Y-142311696D01*
X204615292Y-142382571D01*
X204615294Y-142382576D01*
X204644560Y-142433268D01*
X204651984Y-142446126D01*
X204703874Y-142498016D01*
X204767426Y-142534707D01*
X204810803Y-142546330D01*
X204838303Y-142553699D01*
X204838305Y-142553699D01*
X204838308Y-142553700D01*
X204838310Y-142553700D01*
X204911690Y-142553700D01*
X204911692Y-142553700D01*
X204982574Y-142534707D01*
X205046126Y-142498016D01*
X205098016Y-142446126D01*
X205134707Y-142382574D01*
X205153700Y-142311692D01*
X205153700Y-142238308D01*
X205134707Y-142167426D01*
X205098016Y-142103874D01*
X205046126Y-142051984D01*
X205046125Y-142051983D01*
X204982576Y-142015294D01*
X204982571Y-142015292D01*
X204911696Y-141996300D01*
X204911692Y-141996300D01*
X204838308Y-141996300D01*
X204838303Y-141996300D01*
X204767428Y-142015292D01*
X204767423Y-142015294D01*
X204703874Y-142051983D01*
X204651983Y-142103874D01*
X204615294Y-142167423D01*
X204615292Y-142167428D01*
X204596300Y-142238303D01*
X202062365Y-142238303D01*
X202074620Y-142233227D01*
X202078421Y-142231797D01*
X202588861Y-142058525D01*
X202592748Y-142057346D01*
X203113423Y-141917832D01*
X203117360Y-141916914D01*
X203646063Y-141811748D01*
X203650061Y-141811089D01*
X204184487Y-141740729D01*
X204188535Y-141740331D01*
X204726404Y-141705078D01*
X204730492Y-141704944D01*
X205269508Y-141704944D01*
X205273596Y-141705078D01*
G37*
%TD.AperFunction*%
%TD*%
M02*
